<svg xmlns="http://www.w3.org/2000/svg" viewBox="0 0 51.96 46.49"><defs><style>.cls-1{fill:#f498e1;}</style></defs><title>Brain</title><g id="Calque_2" data-name="Calque 2"><g id="Calque_1-2" data-name="Calque 1"><g id="Brain"><path d="M41.36,22.71a10.27,10.27,0,0,1-.86,10.94l0,0-.17-.14a.92.92,0,0,0,.23-.54,14.25,14.25,0,0,0,.09-2.61,2.81,2.81,0,0,1,0-.29h0a8.8,8.8,0,0,0-.44-6.28,4,4,0,0,0,.42-.6,5.1,5.1,0,0,0,.38-.86A.66.66,0,0,1,41.36,22.71Z" transform="translate(-0.25)"/><path d="M41,22.36a5.1,5.1,0,0,1-.38.86,4,4,0,0,1-.42.6L40,23.5A.81.81,0,0,1,41,22.36Z" transform="translate(-0.25)"/><path d="M41,22.36A.81.81,0,0,0,40,23.5l.15.32a7.61,7.61,0,0,1-1.8,1.49c-.85.54-1.63-.8-.79-1.34a4.85,4.85,0,0,0,1.61-1.44,3.14,3.14,0,0,0,.45-1.72c0-1.08-.73-2.56-2-2.59a3.13,3.13,0,0,0,.59-1.49c1.7.34,2.79,2.22,2.91,3.87A4.56,4.56,0,0,1,41,22.36Z" transform="translate(-0.25)"/><path d="M40.62,30.39A14.25,14.25,0,0,1,40.53,33a.92.92,0,0,1-.23.54.71.71,0,0,1-.54.23.79.79,0,0,1-.79-.71h0a5.74,5.74,0,0,0,.62-.78,8,8,0,0,0,1-2.17A2.81,2.81,0,0,0,40.62,30.39Z" transform="translate(-0.25)"/><path d="M38.52,28.46h0Z" transform="translate(-0.25)"/><path d="M38.36,28.37s0,0,0,0Z" transform="translate(-0.25)"/><path d="M38.36,28.36h0Z" transform="translate(-0.25)"/><path d="M38.32,28.36h0Z" transform="translate(-0.25)"/><path d="M38,28.33h0Z" transform="translate(-0.25)"/><path d="M37.92,28.34h0Z" transform="translate(-0.25)"/><path d="M37.91,28.36h0Z" transform="translate(-0.25)"/><path d="M37.89,28.37s0,0,0,0h0l0,0S37.89,28.38,37.89,28.37Z" transform="translate(-0.25)"/><path d="M38.27,16.73a3.13,3.13,0,0,1-.59,1.49h-.12c-1,.05-1-1.51,0-1.55A2.35,2.35,0,0,1,38.27,16.73Z" transform="translate(-0.25)"/><path d="M40.61,30.1h0a8,8,0,0,1-1,2.17,5.74,5.74,0,0,1-.62.78s0,0,0,0a16.83,16.83,0,0,0,.11-2.12c0-.33,0-.66-.05-1a1.11,1.11,0,0,0,0-.19v-.06s0,0,0,0a2.62,2.62,0,0,0-.09-.38.79.79,0,0,0-.06-.22.2.2,0,0,1,0-.1v0a0,0,0,0,1,0,0,.44.44,0,0,1-.05-.09l-.1-.16a.44.44,0,0,0-.07-.08l-.06-.05v0l0,0s0,0,0,0-.06-.05-.08-.05,0,0-.06,0,0,0,0,0h0l0,0H38s0,0,0,0h0a0,0,0,0,0,0,0h0s0,0,0,0,0,0,0,0h0a.78.78,0,0,1-1.34-.79,1.9,1.9,0,0,1,2-.79,2.32,2.32,0,0,1,1.61,1.3A5.19,5.19,0,0,1,40.61,30.1Z" transform="translate(-0.25)"/><path d="M36.61,15.68v0Z" transform="translate(-0.25)"/><path d="M40.3,33.54l.17.14a6,6,0,0,1-4.35,2.42,4.61,4.61,0,0,1-3.08-1,2.86,2.86,0,0,0,.43-.79,1,1,0,0,0,0-.24,1,1,0,0,0,.21-.46,3.09,3.09,0,0,0,2.69.88A4.54,4.54,0,0,0,39,33.06a.79.79,0,0,0,.79.71A.71.71,0,0,0,40.3,33.54Z" transform="translate(-0.25)"/><path d="M38.29,16.28a2.23,2.23,0,0,1,0,.45,2.35,2.35,0,0,0-.71-.06c-1,0-1,1.6,0,1.55h.12A3.56,3.56,0,0,1,36,19.5l-.1,0a.81.81,0,0,1-.85-.56.8.8,0,0,1,.54-1h0l.07,0,.18-.11.11-.07,0,0,.12-.09.18-.2h0s0,0,0,0a0,0,0,0,1,0,0A1.68,1.68,0,0,0,36.6,17h0s0-.11,0-.13a.9.9,0,0,0,.06-.22s0-.06,0-.08h0c0-.08,0-.16,0-.24s0-.11,0-.16,0-.16,0-.19a1.39,1.39,0,0,0-.06-.19.31.31,0,0,0,0-.08v0l0,0-.22-.38h0l0,0s0-.05-.06-.07-.09-.1-.15-.15a1.76,1.76,0,0,0-.64-.38,1.1,1.1,0,0,0-.26-.06l-.06,0h-.08a4.86,4.86,0,0,0-.54,0h-.13l-.28.06a4.51,4.51,0,0,0-.52.17.54.54,0,0,1-.31,0,3.3,3.3,0,0,0,.16-1.59v0a4.15,4.15,0,0,1,2.29-.1A3.4,3.4,0,0,1,38.29,16.28Z" transform="translate(-0.25)"/><path d="M33.49,13.23a3.3,3.3,0,0,1-.16,1.59.87.87,0,0,1-.65-.57.81.81,0,0,1,.55-1l.26-.09Z" transform="translate(-0.25)"/><path d="M33,34.35a.79.79,0,0,1-.78-.74c.47-.43,1.36-.14,1.34.5A.75.75,0,0,1,33,34.35Z" transform="translate(-0.25)"/><path d="M32.17,33.57a5.79,5.79,0,0,0,0-.72.71.71,0,0,1,1.1.22,2.64,2.64,0,0,0,.41.58,1,1,0,0,1-.21.46c0-.64-.87-.93-1.34-.5Z" transform="translate(-0.25)"/><path d="M32.17,33.61a.79.79,0,0,0,.78.74.75.75,0,0,0,.56-.24,1,1,0,0,1,0,.24,2.86,2.86,0,0,1-.43.79A4,4,0,0,1,32,33.89.71.71,0,0,1,32.17,33.61Z" transform="translate(-0.25)"/><path d="M32.21,32.85a5.79,5.79,0,0,1,0,.72v0a.71.71,0,0,0-.18.28l0,0A.76.76,0,0,1,32.21,32.85Z" transform="translate(-0.25)"/><path d="M36.57,20.51a.81.81,0,0,1,0,1.1,7.43,7.43,0,0,1-4.3,2.85,4.94,4.94,0,0,1-1.8-.06A3.92,3.92,0,0,1,28,22.72c-.54-.85.8-1.62,1.34-.78a2.72,2.72,0,0,0,2.87,1,6.46,6.46,0,0,0,3.3-2.39.7.7,0,0,1,.51-.22A.9.9,0,0,1,36.57,20.51Z" transform="translate(-0.25)"/><path class="cls-1" d="M40.17,23.82a8.8,8.8,0,0,1,.44,6.28,5.19,5.19,0,0,0-.44-2,2.32,2.32,0,0,0-1.61-1.3,1.9,1.9,0,0,0-2,.79.78.78,0,0,0,1.34.79h0l0,0h.37l0,0h0s.06,0,.06,0,0,0,.08.05h0a0,0,0,0,0,0,0l.06.05a.44.44,0,0,1,.07.08l.1.16a.44.44,0,0,0,.05.09,0,0,0,0,0,0,0v0a.2.2,0,0,0,0,.1.79.79,0,0,1,.06.22,2.62,2.62,0,0,1,.09.38s0,0,0,0v.06a1.11,1.11,0,0,1,0,.19c0,.33.05.66.05,1A16.83,16.83,0,0,1,39,33s0,0,0,0h0a4.54,4.54,0,0,1-2.56,1.47,3.09,3.09,0,0,1-2.69-.88s0,0,0-.08A16.76,16.76,0,0,0,33.35,29a5.69,5.69,0,0,0-1.74-3.37,3.84,3.84,0,0,0-1.31-.73l.17-.5a4.94,4.94,0,0,0,1.8.06,7.43,7.43,0,0,0,4.3-2.85.81.81,0,0,0,0-1.1.9.9,0,0,0-.59-.22l-.07-.77.1,0a3.56,3.56,0,0,0,1.67-1.28c1.23,0,1.93,1.51,2,2.59a3.14,3.14,0,0,1-.45,1.72A4.85,4.85,0,0,1,37.58,24c-.84.54-.06,1.88.79,1.34A7.61,7.61,0,0,0,40.17,23.82Z" transform="translate(-0.25)"/><path d="M31.94,29.93a5.62,5.62,0,0,0-1-2.83,2.07,2.07,0,0,0-2.05-.78c-.8.26-1.11,1.22-1.34,1.95a.78.78,0,0,1-1.5-.42,4.2,4.2,0,0,1,2.23-3,3,3,0,0,1,2.05,0,3.84,3.84,0,0,1,1.31.73A5.69,5.69,0,0,1,33.35,29a16.76,16.76,0,0,1,.38,4.57s0,0,0,.08a2.64,2.64,0,0,1-.41-.58.71.71,0,0,0-1.1-.22A17.82,17.82,0,0,0,31.94,29.93Z" transform="translate(-0.25)"/><path d="M29.77,34.83c.74,0,1.91,0,2.2-.89,0,0,0,0,0,0A4,4,0,0,0,33,35.14c-1.28,1.69-4.32,1.45-6.11.72a5.22,5.22,0,0,1-2.71-2.38,5,5,0,0,1-.29-.62,6.31,6.31,0,0,0,.6-3.62.59.59,0,0,1,.18.34c.3,1.82.67,3.79,2.46,4.71A5.84,5.84,0,0,0,29.77,34.83Z" transform="translate(-0.25)"/><path d="M25.06,16.84a.74.74,0,0,1-1.12.5,1.57,1.57,0,0,1-.26-.19l.31-.28A.81.81,0,0,1,25.06,16.84Z" transform="translate(-0.25)"/><path d="M24.53,29.24a6.31,6.31,0,0,1-.6,3.62A14,14,0,0,1,23.21,30a.8.8,0,0,1,.54-.95A.86.86,0,0,1,24.53,29.24Z" transform="translate(-0.25)"/><path d="M22.58,15.94a2.94,2.94,0,0,0,.26-1.35,3,3,0,0,0-.36-1.37l.05-.1a5.11,5.11,0,0,1,1.67-1.5,11.1,11.1,0,0,1,2.09-1.06,6.64,6.64,0,0,1,4.6-.26,3.88,3.88,0,0,1,2.6,2.9l-.26.09a.81.81,0,0,0-.55,1,.87.87,0,0,0,.65.57,2.85,2.85,0,0,1-1.39,1.64c-.89.45-1.67-.89-.78-1.35a1.65,1.65,0,0,0,.43-2.49,3.37,3.37,0,0,0-3.23-1,8.73,8.73,0,0,0-3.85,1.69,1.47,1.47,0,0,0-.78,1.41,2,2,0,0,0,1,1.3.73.73,0,0,1,.34.84.81.81,0,0,0-1.07,0l-.31.28A3.87,3.87,0,0,1,22.58,15.94Z" transform="translate(-0.25)"/><path d="M23.12,21.19A6.91,6.91,0,0,0,23.38,25a.78.78,0,0,1-.54,1,.8.8,0,0,1-.95-.54,7.91,7.91,0,0,1-.38-1.58A.77.77,0,0,0,22,24a.79.79,0,0,0,.77-.78,8.9,8.9,0,0,0-.54-4.05,6.91,6.91,0,0,1,1.45-2,1.57,1.57,0,0,0,.26.19.74.74,0,0,0,1.12-.5l0,0a.79.79,0,0,1,0,1.1A5.84,5.84,0,0,0,23.12,21.19Z" transform="translate(-0.25)"/><path d="M22.84,14.59a2.94,2.94,0,0,1-.26,1.35,2.75,2.75,0,0,1-.1-2.72A3,3,0,0,1,22.84,14.59Z" transform="translate(-0.25)"/><path d="M22.23,19.16a8.9,8.9,0,0,1,.54,4.05A.79.79,0,0,1,22,24a.77.77,0,0,1-.49-.19A7.87,7.87,0,0,1,22.23,19.16Z" transform="translate(-0.25)"/><path d="M21,16.93a4.56,4.56,0,0,1,.27.39,2.53,2.53,0,0,1-.87.27.64.64,0,0,1-.75-.63.84.84,0,0,1,.29-.3A.81.81,0,0,1,21,16.93Z" transform="translate(-0.25)"/><path d="M21.28,17.32a8.67,8.67,0,0,1,.95,1.84,7.87,7.87,0,0,0-.72,4.64.65.65,0,0,1-.29-.59,7.72,7.72,0,0,0-1.55-5.49.74.74,0,0,1,0-.76.64.64,0,0,0,.75.63A2.53,2.53,0,0,0,21.28,17.32Z" transform="translate(-0.25)"/><path d="M14,16.71Z" transform="translate(-0.25)"/><path d="M23,29.63c-.14-1,1.36-1.39,1.5-.4h0a.86.86,0,0,0-.78-.2.8.8,0,0,0-.54.95,14,14,0,0,0,.72,2.87,7.09,7.09,0,0,1-3.49,3.36A9.83,9.83,0,0,1,12,35.55a.86.86,0,0,0,.1-.16h0a.77.77,0,0,0,.77-.77c0-.12,0-.26,0-.39a8.35,8.35,0,0,0,6.67.72C21.57,34.17,23.35,31.94,23,29.63Z" transform="translate(-0.25)"/><path d="M13.14,16h0Z" transform="translate(-0.25)"/><path d="M13.15,16s0,0,0,0l0,0Z" transform="translate(-0.25)"/><path d="M13.14,16h0Z" transform="translate(-0.25)"/><path d="M13.13,16h0Z" transform="translate(-0.25)"/><path d="M22.48,13.22a2.75,2.75,0,0,0,.1,2.72,2.77,2.77,0,0,1-1.3,1.38,4.56,4.56,0,0,0-.27-.39A.81.81,0,0,0,20,16.66a.84.84,0,0,0-.29.3.87.87,0,0,1,.75-.93c.87-.1,1-1.39.74-2a5,5,0,0,0-2.66-2.18,5.36,5.36,0,0,0-3.84-.47,2.77,2.77,0,0,0-1.87,1.86.76.76,0,0,0-.54-.52h0l.13-.06a2.83,2.83,0,0,0-.88-.41,4.55,4.55,0,0,1,2.94-2.42,7.56,7.56,0,0,1,5.46,1A5.91,5.91,0,0,1,22.48,13.22Z" transform="translate(-0.25)"/><path d="M11.24,33.75a10.9,10.9,0,0,1,.85-5,4.6,4.6,0,0,1,2.33-2.33.8.8,0,0,1,1.06.28.78.78,0,0,1-.28,1.06c-2.33,1-2.56,4.25-2.38,6.5-.28-.14-.57-.3-.83-.46A.8.8,0,0,0,11.24,33.75Z" transform="translate(-0.25)"/><path d="M12.65,14.82v0a.51.51,0,0,1,0-.09A.64.64,0,0,1,12.65,14.82Z" transform="translate(-0.25)"/><path d="M11.46,16.17a4.05,4.05,0,0,1-.32-2.4,1.9,1.9,0,0,1,.43.21.78.78,0,0,0,1.14-.46c0-.1,0-.2.07-.3a.7.7,0,0,1,0,.43s-.1.3-.13.45a.06.06,0,0,0,0,0,.32.32,0,0,0,0,.07v.54a.51.51,0,0,0,0,.09c0,.07,0,.14,0,.16a2.76,2.76,0,0,0,.08.27.69.69,0,0,0,.05.13.2.2,0,0,1,0,0l0,0v0c0,.05.05.1.07.14l.13.24a.44.44,0,0,1,.08.11h0l0,0s0,0,0,0,.11.14.18.21a1.62,1.62,0,0,0,.19.18h0l0,0h0l0,0h0l.24.16.17.08h0a.79.79,0,0,1,.54.95.76.76,0,0,1-.95.54A3.86,3.86,0,0,1,11.46,16.17Z" transform="translate(-0.25)"/><path d="M12.35,12.64l-.13.06a.76.76,0,0,0-.83.33l-.18.07a3.79,3.79,0,0,1,.26-.87A2.83,2.83,0,0,1,12.35,12.64Z" transform="translate(-0.25)"/><path d="M11.43,35l.92-.38a3,3,0,0,1-.28.75A.74.74,0,0,1,11.43,35Z" transform="translate(-0.25)"/><path d="M11.39,13a.76.76,0,0,1,.83-.33Z" transform="translate(-0.25)"/><path d="M12.07,35.39a.86.86,0,0,1-.1.16c-.26-.14-.51-.28-.77-.44l.23-.09A.74.74,0,0,0,12.07,35.39Z" transform="translate(-0.25)"/><path d="M11.31,34.62c0-.28-.05-.57-.07-.87a.8.8,0,0,1,.75,0c.26.16.55.32.83.46,0,.13,0,.27,0,.39a.77.77,0,0,1-.77.77h0a3,3,0,0,0,.28-.75l-.92.38A.93.93,0,0,1,11.31,34.62Z" transform="translate(-0.25)"/><path d="M11.57,14a1.9,1.9,0,0,0-.43-.21,2.46,2.46,0,0,1,.15-.53.81.81,0,0,1,.1-.21l.83-.33h0a.76.76,0,0,1,.54.52c0,.1,0,.2-.07.3A.78.78,0,0,1,11.57,14Z" transform="translate(-0.25)"/><path class="cls-1" d="M9.2,26.77a2.21,2.21,0,0,1,.08,1.76.77.77,0,1,0,1.49.41c0-.1.07-.19.1-.29l1.22.07a10.9,10.9,0,0,0-.85,5,.71.71,0,0,0-.4.49c-.2.93-1.19,1.15-2,1.13A13.63,13.63,0,0,1,6,35a4.85,4.85,0,0,1-3.62-3.31C1.35,28.83,1.53,25,3.91,23a.22.22,0,0,0,.09.07c.75.38,1.51.77,2.25,1.17A10.4,10.4,0,0,1,8,25.33,3.89,3.89,0,0,1,9.2,26.77Z" transform="translate(-0.25)"/><path d="M6,17.35l.21-.79a.44.44,0,0,1,.2,0,2.61,2.61,0,0,1,.92.29.83.83,0,0,1-.57.72,4.8,4.8,0,0,0-.87.32.68.68,0,0,1-.26-.56.87.87,0,0,1,.07-.3A1.88,1.88,0,0,0,6,17.35Z" transform="translate(-0.25)"/><path d="M5.37,16.41A3.07,3.07,0,0,1,7,13.06a6.56,6.56,0,0,1,4.47-.83,3.79,3.79,0,0,0-.26.87l.18-.07a.81.81,0,0,0-.1.21,2.46,2.46,0,0,0-.15.53,4.64,4.64,0,0,0-2.83.4c-.71.26-2.12,1.24-1.22,2.08a.75.75,0,0,1,.23.58,2.61,2.61,0,0,0-.92-.29.44.44,0,0,0-.2,0c0-.17.09-.34.13-.51A5.56,5.56,0,0,0,5.37,16.41Z" transform="translate(-0.25)"/><path d="M6.4,18.09a.88.88,0,0,1-.52-.22,4.8,4.8,0,0,1,.87-.32.83.83,0,0,0,.57-.72,2.76,2.76,0,0,1,1,1c.36.6.6,1.25,1,1.82a6.18,6.18,0,0,0,2.89,2.06.77.77,0,1,1-.41,1.49A7.56,7.56,0,0,1,8.47,21,8.22,8.22,0,0,1,7.33,19.3a4.83,4.83,0,0,0-.48-.88l-.14-.15-.08-.06a.8.8,0,0,1-.12-.08h0S6.3,18.08,6.4,18.09Z" transform="translate(-0.25)"/><path class="cls-1" d="M14,16.71ZM36.7,16s0,.16,0,.19,0,.11,0,.16,0,.16,0,.24h0s0,.06,0,.08a.9.9,0,0,1-.06.22s0,.09,0,.13h0a1.68,1.68,0,0,1-.21.37,0,0,0,0,0,0,0s0,0,0,0h0l-.18.2-.12.09,0,0-.11.07-.18.11-.07,0h0a.8.8,0,0,0-.54,1,.81.81,0,0,0,.85.56l.07.77a.7.7,0,0,0-.51.22,6.46,6.46,0,0,1-3.3,2.39,2.72,2.72,0,0,1-2.87-1c-.54-.84-1.88-.07-1.34.78a3.92,3.92,0,0,0,2.51,1.68l-.17.5a3,3,0,0,0-2.05,0,4.2,4.2,0,0,0-2.23,3,.78.78,0,0,0,1.5.42c.23-.73.54-1.69,1.34-1.95a2.07,2.07,0,0,1,2.05.78,5.62,5.62,0,0,1,1,2.83,17.82,17.82,0,0,1,.27,2.92.76.76,0,0,0-.24,1l0,0s0,0,0,0c-.29.84-1.46.89-2.2.89a5.84,5.84,0,0,1-2.6-.54c-1.79-.92-2.16-2.89-2.46-4.71a.59.59,0,0,0-.18-.34h0c-.14-1-1.64-.57-1.5.4.32,2.31-1.46,4.54-3.54,5.32a8.35,8.35,0,0,1-6.67-.72c-.18-2.25,0-5.5,2.38-6.5a.78.78,0,0,0,.28-1.06.8.8,0,0,0-1.06-.28,4.6,4.6,0,0,0-2.33,2.33l-1.22-.07a4.4,4.4,0,0,0-1.51-4.21,17.68,17.68,0,0,0-4-2.44.85.85,0,0,0-.27-1.11,1.52,1.52,0,0,1-.4-1.83,2.48,2.48,0,0,1,1.22-1.19.88.88,0,0,0,.52.22c-.1,0,0,0,.1,0h0a.8.8,0,0,0,.12.08l.08.06.14.15a4.83,4.83,0,0,1,.48.88A8.22,8.22,0,0,0,8.47,21a7.56,7.56,0,0,0,3.37,2.21.77.77,0,1,0,.41-1.49,6.18,6.18,0,0,1-2.89-2.06c-.42-.57-.66-1.22-1-1.82a2.76,2.76,0,0,0-1-1,.75.75,0,0,0-.23-.58c-.9-.84.51-1.82,1.22-2.08a4.64,4.64,0,0,1,2.83-.4,4.05,4.05,0,0,0,.32,2.4,3.86,3.86,0,0,0,2.1,2,.76.76,0,0,0,.95-.54.79.79,0,0,0-.54-.95h0l-.17-.08-.24-.16h0l0,0h0s0,0,0,0h0a1.62,1.62,0,0,1-.19-.18c-.07-.07-.12-.14-.18-.21h0a.44.44,0,0,0-.08-.11l-.13-.24s-.05-.09-.07-.14v0l0,0a.2.2,0,0,0,0,0,.69.69,0,0,1-.05-.13,2.76,2.76,0,0,1-.08-.27s0-.09,0-.16v0a.64.64,0,0,0,0-.07v-.54a.2.2,0,0,0,0-.07v0c0-.15.12-.42.13-.45a.7.7,0,0,0,0-.43,2.77,2.77,0,0,1,1.87-1.86,5.36,5.36,0,0,1,3.84.47A5,5,0,0,1,21.15,14c.27.63.13,1.92-.74,2a.87.87,0,0,0-.75.93.74.74,0,0,0,0,.76,7.72,7.72,0,0,1,1.55,5.49.65.65,0,0,0,.29.59,7.91,7.91,0,0,0,.38,1.58.8.8,0,0,0,.95.54.78.78,0,0,0,.54-1,6.91,6.91,0,0,1-.26-3.77,5.84,5.84,0,0,1,2-3.22.79.79,0,0,0,0-1.1l0,0a.73.73,0,0,0-.34-.84,2,2,0,0,1-1-1.3,1.47,1.47,0,0,1,.78-1.41,8.73,8.73,0,0,1,3.85-1.69,3.37,3.37,0,0,1,3.23,1,1.65,1.65,0,0,1-.43,2.49c-.89.46-.11,1.8.78,1.35a2.85,2.85,0,0,0,1.39-1.64.54.54,0,0,0,.31,0,4.51,4.51,0,0,1,.52-.17l.28-.06h.13a4.86,4.86,0,0,1,.54,0h.08l.06,0a1.1,1.1,0,0,1,.26.06,1.76,1.76,0,0,1,.64.38c.06.05.1.1.15.15s0,.05.06.07v0l.22.38,0,0v0a.31.31,0,0,1,0,.08A1.39,1.39,0,0,1,36.7,16Z" transform="translate(-0.25)"/><path d="M5.69,17a.78.78,0,0,1,.51-.45L6,17.35A1.88,1.88,0,0,1,5.69,17Z" transform="translate(-0.25)"/><path d="M5.37,16.41a5.56,5.56,0,0,1,1-.36c0,.17-.09.34-.13.51a.78.78,0,0,0-.51.45A2.18,2.18,0,0,1,5.37,16.41Z" transform="translate(-0.25)"/><path d="M5.06,22.23A5.14,5.14,0,0,0,3.91,23a.78.78,0,0,1-.19-1,.57.57,0,0,1,.12-.15,2.27,2.27,0,0,0,.44.38v-.59a.79.79,0,0,1,.5.08l.55.28A.62.62,0,0,1,5.06,22.23Z" transform="translate(-0.25)"/><path d="M3.12,18.77a4.06,4.06,0,0,1,2.25-2.36,2.18,2.18,0,0,0,.32.6.87.87,0,0,0-.07.3.68.68,0,0,0,.26.56,2.48,2.48,0,0,0-1.22,1.19,1.52,1.52,0,0,0,.4,1.83A.85.85,0,0,1,5.33,22l-.55-.28a.79.79,0,0,0-.5-.08v-.75a6.13,6.13,0,0,0-.82.49A3.07,3.07,0,0,1,3.12,18.77Z" transform="translate(-0.25)"/><path d="M4.28,22.23a2.27,2.27,0,0,1-.44-.38.73.73,0,0,1,.44-.21Z" transform="translate(-0.25)"/><path d="M3.84,21.85a1.91,1.91,0,0,1-.38-.47,6.13,6.13,0,0,1,.82-.49v.75A.73.73,0,0,0,3.84,21.85Z" transform="translate(-0.25)"/><path d="M4,23.07A.22.22,0,0,1,3.91,23a5.14,5.14,0,0,1,1.15-.77A.62.62,0,0,0,5.33,22a17.68,17.68,0,0,1,4,2.44,4.4,4.4,0,0,1,1.51,4.21c0,.1-.06.19-.1.29a.77.77,0,1,1-1.49-.41,2.21,2.21,0,0,0-.08-1.76A3.89,3.89,0,0,0,8,25.33a10.4,10.4,0,0,0-1.77-1.09C5.51,23.84,4.75,23.45,4,23.07Z" transform="translate(-0.25)"/><path d="M.4,30.25c-.51-3.25.24-7,3.06-8.87a1.91,1.91,0,0,0,.38.47.57.57,0,0,0-.12.15.78.78,0,0,0,.19,1c-2.38,2-2.56,5.83-1.56,8.71A4.85,4.85,0,0,0,6,35a13.63,13.63,0,0,0,2.85.35c.83,0,1.82-.2,2-1.13a.71.71,0,0,1,.4-.49c0,.3,0,.59.07.87a.93.93,0,0,0,.12.4l-.23.09c.26.16.51.3.77.44C11.05,37,8.9,37,7.29,36.79a7.56,7.56,0,0,1-4.88-2A8.56,8.56,0,0,1,.4,30.25Z" transform="translate(-0.25)"/><path d="M34,11.37a5.4,5.4,0,0,1,.58.09c.21,0-.22-.06-.07,0l.12,0a1.31,1.31,0,0,1,.28.09,3.76,3.76,0,0,1,.55.23l.15.07c.12.06-.26-.15-.06,0l.25.16a5.2,5.2,0,0,1,.47.35l.23.2s-.18-.18-.08-.07l.12.12a4.14,4.14,0,0,1,.37.46c.06.07.11.18.17.24s-.13-.22-.05-.08l.1.17a1.17,1.17,0,1,0,2.13-1,6.46,6.46,0,0,0-5-3.38A1.17,1.17,0,1,0,34,11.37Z" transform="translate(-0.25)"/><path d="M33,7a8.89,8.89,0,0,1,8.92,5.81,1.17,1.17,0,1,0,2.13-1A11.23,11.23,0,0,0,32.58,4.73a1.19,1.19,0,0,0-1,1.34A1.2,1.2,0,0,0,33,7Z" transform="translate(-0.25)"/><path d="M32.74,3c2.73-1.45,5.89,0,8.42,1.2s4.83,3,5.1,5.85c.13,1.5,2.44,1.12,2.3-.37-.32-3.6-3.25-6-6.28-7.53S35.17-1,31.78.81c-1.32.71-.37,2.85,1,2.14Z" transform="translate(-0.25)"/><path d="M39.72,39a6.8,6.8,0,0,0,5.92-5.63,1,1,0,0,0-1-1.12,1.07,1.07,0,0,0-1.12.94s0,.19,0,.21c0-.15,0-.17,0-.06l0,.07c0,.15-.09.3-.14.45s-.1.27-.16.4a1.86,1.86,0,0,1-.1.2c0,.06,0,0,0-.08l-.06.09a5.15,5.15,0,0,1-.5.75l-.14.17s-.14.23,0,0a1.82,1.82,0,0,1-.31.31,7.33,7.33,0,0,1-.68.54c-.2.14.19-.12,0,0l-.19.11-.38.2-.4.16-.14,0,.12,0a1.17,1.17,0,0,1-.2.06,4.89,4.89,0,0,1-.93.16,1.05,1.05,0,0,0-.83,1.21,1.07,1.07,0,0,0,1.21.83Z" transform="translate(-0.25)"/><path d="M40.72,42.35a9.48,9.48,0,0,0,7.56-7.48,1.05,1.05,0,0,0-1-1.13,1.07,1.07,0,0,0-1.12.95c-.05.24,0-.09,0,.13s0,.19-.07.29a5.66,5.66,0,0,1-.2.58,5.49,5.49,0,0,1-.21.51c0,.1-.09.19-.13.28s0-.08,0,.07a8.53,8.53,0,0,1-.67,1c-.11.15-.23.29-.35.43s0,0,0,0l-.1.12-.22.21a10.8,10.8,0,0,1-.89.76l-.25.17c-.17.12.08,0-.12.08s-.32.19-.49.27a8.34,8.34,0,0,1-1.06.47c-.31.11.18,0-.14,0l-.29.08q-.3.08-.6.12a1,1,0,1,0,.38,2Z" transform="translate(-0.25)"/><path d="M41.21,46.49c6-.48,9.6-6.06,11-11.38a1.06,1.06,0,0,0-.62-1.33,1,1,0,0,0-1.33.61c-1.19,4.66-4.09,9.63-9.39,10A1,1,0,0,0,40,45.65a1.07,1.07,0,0,0,1.21.84Z" transform="translate(-0.25)"/></g></g></g></svg>