<svg xmlns="http://www.w3.org/2000/svg" viewBox="0 0 51.99 108.28"><defs><style>.cls-1{fill:#47bf72;}.cls-2{fill:#006837;}.cls-3{opacity:0.21;}</style></defs><title>feuille</title><g id="Calque_2" data-name="Calque 2"><g id="Calque_1-2" data-name="Calque 1"><g id="Feuille"><path d="M42.76,36.31A38.64,38.64,0,0,1,35.56,64a36.79,36.79,0,0,1-10.91,10c-4.3,2.54-9.72,4.33-12.32,8.93-.47.82-1.84.22-1.37-.62a14.6,14.6,0,0,1,4.17-4.52c2.74-2,6-3.42,8.95-5.19A37.27,37.27,0,0,0,40.79,48.76a36.62,36.62,0,0,0-.08-15.39c-.42-2-.94-4-1.37-6a32.85,32.85,0,0,1-1-8.18A20.21,20.21,0,0,0,40,17.07l0-.07C39.07,23.56,41.87,29.89,42.76,36.31Z"/><path class="cls-1" d="M40.71,33.37a36.62,36.62,0,0,1,.08,15.39A37.27,37.27,0,0,1,24.08,72.65c-2.92,1.77-6.21,3.16-8.95,5.19L14.07,76a.63.63,0,0,0,.77-.61,24.48,24.48,0,0,0-.14-3.93l1.76,0a.78.78,0,0,0,1.35.43,28.81,28.81,0,0,0,4.56-7.47,6.9,6.9,0,0,0,5.5-1.47A.75.75,0,0,0,27,61.73a5.65,5.65,0,0,1-1.07.71,6.77,6.77,0,0,1-.65.26,2.47,2.47,0,0,1-.61.17A5.37,5.37,0,0,1,24,63a1.67,1.67,0,0,1-.32,0h-.26A3,3,0,0,1,23,63a66.41,66.41,0,0,0,2.55-8.63c2.31-1.08,4.68-2,7.07-2.9.91-.33.35-1.72-.55-1.4C30,50.78,28,51.59,26,52.48l.69-3.06c.29-1.31.61-2.65,1-4a.69.69,0,0,0,.28-.63,1.93,1.93,0,0,1,0-.55c0-.09.05-.19.08-.28.52-1.42,2.58-2.12,3.86-2.45,1.87-.48,4-1,5.13-2.66.55-.78-.62-1.73-1.16-.94-1.18,1.7-3.5,1.85-5.31,2.42a7.94,7.94,0,0,0-1.59.7c1.67-4.8,4.11-9.3,8.18-12.48a.69.69,0,0,0,.26-.77l2-.43C39.77,29.37,40.29,31.37,40.71,33.37Z"/><path class="cls-1" d="M39.34,27.36l-2,.43a.72.72,0,0,0-1.14-.45,25.66,25.66,0,0,0-8.07,11.4,5.56,5.56,0,0,0-4.38-3.88.76.76,0,0,0-.85.63.77.77,0,0,0,.62.86,2.81,2.81,0,0,1,.49.09h.07l.21.07.41.19.18.1h0a0,0,0,0,1,0,0l.08,0a4.67,4.67,0,0,1,.68.57l.08.09.14.16c.1.13.19.25.27.37a1.88,1.88,0,0,1,.12.18l0,.06v0c.07.13.13.26.19.39a3.66,3.66,0,0,1,.15.43s0,.07.05.11,0,0,0,0v0s0,.11,0,.15.05.28.07.43a.92.92,0,0,1,0,.24.31.31,0,0,1,0,.11,4,4,0,0,1-.13.91.7.7,0,0,0,.3.72c-.18.62-.37,1.25-.55,1.89,0,0,0,0,0,0-.8,2.92-1.45,5.94-2.14,8.93a8.17,8.17,0,0,1-3.73-6.06.76.76,0,0,0-1.5.18,9.63,9.63,0,0,0,4.3,7,.8.8,0,0,0,.43.93,59.2,59.2,0,0,1-2.48,8.05h0a.81.81,0,0,0-.27.48.61.61,0,0,0,0,.19,27.79,27.79,0,0,1-4.47,7.34.63.63,0,0,0-.18.51l-1.76,0A69.23,69.23,0,0,0,13,63c-1.06-4.46-1.64-8.83-.62-13.37a35.71,35.71,0,0,1,6-13.3,41.72,41.72,0,0,1,10.45-9.42c3.38-2.29,6.84-4.61,9.54-7.69A32.85,32.85,0,0,0,39.34,27.36ZM21.47,61.87a.74.74,0,0,0,.42-1,13.71,13.71,0,0,0-5.93-6,.75.75,0,0,0-.62,1.36,12,12,0,0,1,5.15,5.16A.78.78,0,0,0,21.47,61.87Z"/><path class="cls-2" d="M35.84,37.92c.54-.79,1.71.16,1.16.94-1.17,1.69-3.26,2.18-5.13,2.66-1.28.33-3.34,1-3.86,2.45.28-1,.59-2,.93-2.93a7.94,7.94,0,0,1,1.59-.7C32.34,39.77,34.66,39.62,35.84,37.92Z"/><path d="M40.16,16.51a.67.67,0,0,1-.09.47C40.1,16.83,40.12,16.67,40.16,16.51Z"/><path d="M38.7,16.08c.19-.95,1.67-.72,1.49.22a1.52,1.52,0,0,0,0,.21c-.11-.58-.88-1-1.3-.38l-.21.3C38.66,16.31,38.69,16.2,38.7,16.08Z"/><path d="M40.16,16.51c0,.16-.06.32-.09.47v0l0,.07a20.21,20.21,0,0,1-1.65,2.11,16.11,16.11,0,0,1,.27-2.75l.21-.3C39.28,15.52,40.05,15.93,40.16,16.51Z"/><path class="cls-2" d="M37.38,27.79a.69.69,0,0,1-.26.77c-4.07,3.18-6.51,7.68-8.18,12.48a4.76,4.76,0,0,0-.73.47s0,0,0-.08a4.92,4.92,0,0,0-.07-2.69,25.66,25.66,0,0,1,8.07-11.4A.72.72,0,0,1,37.38,27.79Z"/><path d="M38.65,16.43a16.11,16.11,0,0,0-.27,2.75c-2.7,3.08-6.16,5.4-9.54,7.69a41.72,41.72,0,0,0-10.45,9.42,35.71,35.71,0,0,0-6,13.3c-1,4.54-.44,8.91.62,13.37a69.23,69.23,0,0,1,1.7,8.46,24.48,24.48,0,0,1,.14,3.93.63.63,0,0,1-.77.61.81.81,0,0,1-.71-.84c.25-5-1.5-9.84-2.46-14.72A27.82,27.82,0,0,1,11.52,47,36.88,36.88,0,0,1,18,34.36a45.81,45.81,0,0,1,10.46-9C32.2,22.77,36,20.19,38.65,16.43Z"/><path class="cls-2" d="M32,50c.9-.32,1.46,1.07.55,1.4-2.39.86-4.76,1.82-7.07,2.9.15-.62.29-1.24.44-1.86C28,51.59,30,50.78,32,50Z"/><path class="cls-2" d="M23.42,63h.22A1.67,1.67,0,0,0,24,63a5.37,5.37,0,0,0,.7-.11,2.47,2.47,0,0,0,.61-.17,6.77,6.77,0,0,0,.65-.26A5.65,5.65,0,0,0,27,61.73a.75.75,0,0,1,.88,1.21,6.9,6.9,0,0,1-5.5,1.47c.21-.48.41-.95.59-1.44a3,3,0,0,0,.42,0Z"/><path class="cls-2" d="M28.21,41.51a4.76,4.76,0,0,1,.73-.47C28.6,42,28.29,43,28,44a1.29,1.29,0,0,0-.08.28c-.11.39-.22.79-.32,1.18a.71.71,0,0,1-1.2-.46,3.36,3.36,0,0,1,.1-1.11s0,0,0,0a4,4,0,0,1,1.06-1.74A.78.78,0,0,0,28.21,41.51Z"/><path class="cls-2" d="M27.89,44.8a.69.69,0,0,1-.28.63c.1-.39.21-.79.32-1.18A1.93,1.93,0,0,0,27.89,44.8Z"/><path class="cls-2" d="M28,44c0,.09-.05.19-.08.28A1.29,1.29,0,0,1,28,44Z"/><path class="cls-2" d="M28.17,38.74a4.92,4.92,0,0,1,.07,2.69s0,0,0,.08a3.78,3.78,0,0,0-.64.56h-.18a.87.87,0,0,1-.33-.14Q27.57,40.3,28.17,38.74Z"/><path class="cls-2" d="M27.61,45.43c-.36,1.34-.68,2.68-1,4L26,52.48l-1.25.57a.92.92,0,0,0-.26-.22l-.07,0c.69-3,1.34-6,2.14-8.93a3.36,3.36,0,0,0-.1,1.11A.71.71,0,0,0,27.61,45.43Z"/><path class="cls-2" d="M28.21,41.51a.78.78,0,0,1-.64.56A3.78,3.78,0,0,1,28.21,41.51Z"/><path class="cls-2" d="M27.39,42.06h.18a4,4,0,0,0-1.06,1.74c.18-.64.37-1.27.55-1.89A.87.87,0,0,0,27.39,42.06Z"/><path class="cls-2" d="M24.7,53.05,26,52.48c-.15.62-.29,1.24-.44,1.86-.36.15-.73.33-1.11.5a.59.59,0,0,1-.53,0l.16-.61a.77.77,0,0,0,.78-.45A.68.68,0,0,0,24.7,53.05Z"/><path class="cls-2" d="M24.4,54.84c.38-.17.75-.35,1.11-.5A66.41,66.41,0,0,1,23,63a5.69,5.69,0,0,1-1-.19.66.66,0,0,0-.57.14,59.2,59.2,0,0,0,2.48-8.05A.59.59,0,0,0,24.4,54.84Z"/><path class="cls-2" d="M26.89,40.29a.31.31,0,0,0,0-.11.92.92,0,0,0,0-.24c0-.15,0-.29-.07-.43s0-.1,0-.15v0s0,0,0,0,0-.1-.05-.11a3.66,3.66,0,0,0-.15-.43c-.06-.13-.12-.26-.19-.39v0l0-.06a1.88,1.88,0,0,0-.12-.18c-.08-.12-.17-.24-.27-.37l-.14-.16-.08-.09a4.67,4.67,0,0,0-.68-.57l-.08,0a0,0,0,0,0,0,0h0l-.18-.1-.41-.19-.21-.07h0s0,0,0,0h0a2.81,2.81,0,0,0-.49-.09.77.77,0,0,1-.62-.86.76.76,0,0,1,.85-.63,5.56,5.56,0,0,1,4.38,3.88q-.6,1.56-1.11,3.18a.7.7,0,0,1-.3-.72A4,4,0,0,0,26.89,40.29Z"/><path class="cls-2" d="M24.7,53.05a.68.68,0,0,1,.11.76.77.77,0,0,1-.78.45c.08-.33.15-.66.23-1Z"/><path class="cls-2" d="M24.7,53.05l-.44.21c0-.16.08-.32.11-.47l.07,0A.92.92,0,0,1,24.7,53.05Z"/><path class="cls-2" d="M22,62.78A5.69,5.69,0,0,0,23,63c-.18.49-.38,1-.59,1.44l-.64-.15a.77.77,0,0,1-.62-.66c.09-.22.19-.45.27-.67h0A.66.66,0,0,1,22,62.78Z"/><path class="cls-2" d="M24.37,52.79c0,.15-.07.31-.11.47s-.27.12-.41.18a.68.68,0,0,0-.41.5,9.63,9.63,0,0,1-4.3-7,.76.76,0,0,1,1.5-.18A8.17,8.17,0,0,0,24.37,52.79Z"/><path class="cls-2" d="M23.85,53.44c.14-.06.27-.13.41-.18-.08.34-.15.67-.23,1a.48.48,0,0,1-.2-.07l-.39-.25A.68.68,0,0,1,23.85,53.44Z"/><path class="cls-2" d="M23.83,54.19a.48.48,0,0,0,.2.07l-.16.61a.8.8,0,0,1-.43-.93Z"/><path class="cls-2" d="M21.73,64.26l.64.15a28.81,28.81,0,0,1-4.56,7.47.78.78,0,0,1-1.35-.43.63.63,0,0,1,.18-.51,27.79,27.79,0,0,0,4.47-7.34A.77.77,0,0,0,21.73,64.26Z"/><path class="cls-2" d="M21.89,60.91a.74.74,0,0,1-.42,1,.78.78,0,0,1-1-.42,12,12,0,0,0-5.15-5.16A.75.75,0,0,1,16,54.93,13.71,13.71,0,0,1,21.89,60.91Z"/><path class="cls-2" d="M21.38,62.93c-.08.22-.18.45-.27.67a.61.61,0,0,1,0-.19A.81.81,0,0,1,21.38,62.93Z"/><path class="cls-2" d="M24.08,36.44s0,0,0,0Z"/></g><g class="cls-3"><path class="cls-2" d="M44.14,16.39C43.85,23.68,48,30,49.54,36.93c.38,1.68,1.07,4.91-1.24,5.53a1.26,1.26,0,0,1-1-2.33c1.36-.8,2.8.58,3.3,1.74A14,14,0,0,1,51.18,48a32,32,0,0,1-1,6.06A79.17,79.17,0,0,1,45,66.88c-.2.43.44.81.65.38,2.25-4.82,4.53-9.72,5.63-15a27.72,27.72,0,0,0,.61-7.65c-.14-2-.56-4.33-2.58-5.23a2.48,2.48,0,0,0-3.49,1.47A1.91,1.91,0,0,0,48,43.28C52.66,43,50,35.54,49.23,33.1c-1.83-5.46-4.58-10.8-4.34-16.71,0-.48-.73-.48-.75,0Z"/></g><g class="cls-3"><path class="cls-2" d="M23.88,12.54a2.69,2.69,0,0,0-2.6-.31c-1,.47-1.67,1.69-2.32,2.55a21,21,0,0,0-3.77,7.13c-.74,2.69-1.25,5.33-3,7.55A28.23,28.23,0,0,1,5.7,34.79c-.39.27,0,.92.38.65,3.86-2.6,7.57-5.36,9-10,.7-2.35,1.11-4.72,2.31-6.88a28.54,28.54,0,0,1,2.26-3.39c1-1.31,2-3.13,3.9-2a.38.38,0,0,0,.38-.65Z"/></g><g class="cls-3"><path class="cls-2" d="M15,30c-3.11,3.3-5.5,6.69-6.11,11.28a38.64,38.64,0,0,1-1.09,6.85c-.58,1.77-2.91,5.92-5.3,4.08l.17.42a.85.85,0,0,1,1.23-.32,1.87,1.87,0,0,1,.51,1.53,8.5,8.5,0,0,1-.46,2c-.29,1-.61,2-1,3A47.12,47.12,0,0,1,.05,65.39c-.23.42.42.8.65.38a38.21,38.21,0,0,0,4.38-11.4C5.26,53.3,5.12,52,4,51.54a1.47,1.47,0,0,0-2,.91.41.41,0,0,0,.17.43c1.52,1.17,3.46.08,4.55-1.16a11.64,11.64,0,0,0,2.46-6.06c.41-2.72.4-5.52,1.42-8.11a23,23,0,0,1,5-7c.33-.35-.2-.88-.53-.53Z"/></g><g class="cls-3"><path class="cls-2" d="M4.19,70.51c-.75,2.65-.29,5.34-.18,8,.11,2.37-.12,5-1.77,6.81-.32.35.21.89.53.53,3.8-4.25.76-10.25,2.14-15.17a.37.37,0,0,0-.72-.2Z"/></g><g class="cls-3"><path class="cls-2" d="M34.3,69.74c-2.93,3-3,7.51-4.92,11.08-2.1,3.88-5.79,6.55-9.6,8.57-.42.23-.05.88.38.65,3.66-2,7.19-4.48,9.41-8.05s2.2-8.55,5.26-11.72a.38.38,0,0,0-.53-.53Z"/></g><g class="cls-3"><path class="cls-2" d="M15.9,83.66c-.56,2.45-.44,5.06-1.33,7.43s-2.89,4.3-4.84,6c-.13.11-.43.47-.6.5-.17.22-.24.15-.22-.21-.19-.36-.06-.5.41-.41A1.81,1.81,0,0,1,11,98.63c.2,1.37-.66,2.63-1.45,3.67a21.18,21.18,0,0,1-5.89,5.27c-.41.25,0,.9.38.65a22.23,22.23,0,0,0,4.77-3.87A11.08,11.08,0,0,0,11.61,100a3.13,3.13,0,0,0-1.24-3.61,2.12,2.12,0,0,0-2.84.77c-.39.84.17,2,1.2,1.58a8.55,8.55,0,0,0,2-1.58,25.41,25.41,0,0,0,2.12-2,11.72,11.72,0,0,0,2.72-4.67c.61-2.16.57-4.45,1.07-6.63.11-.47-.62-.67-.72-.2Z"/></g><g class="cls-3"><path class="cls-2" d="M40.44,75.15a16.51,16.51,0,0,0-2.76,5.59c-.6,2.22-.42,4.43-.65,6.7-.26,2.7-1.76,4.83-3.44,6.86s-3.28,3.87-4.91,5.8c-.32.36.21.9.53.53,1.68-2,3.38-4,5-6a15.5,15.5,0,0,0,3.2-5.34c.67-2.34.25-4.82.68-7.19a15.59,15.59,0,0,1,3-6.61c.29-.38-.36-.76-.65-.38Z"/></g><g class="cls-3"><path class="cls-2" d="M38.81.11c-2.93,3-3,7.51-4.92,11.08-2.09,3.87-5.79,6.54-9.6,8.57-.42.23,0,.88.38.65,3.66-1.95,7.19-4.48,9.41-8.06S36.29,3.81,39.34.64a.38.38,0,0,0-.53-.53Z"/></g><g class="cls-3"><path class="cls-2" d="M45,5.52a16.51,16.51,0,0,0-2.76,5.59c-.59,2.22-.42,4.43-.65,6.7-.26,2.69-1.75,4.83-3.44,6.86s-3.28,3.87-4.91,5.8c-.31.36.21.9.53.53,1.68-2,3.38-4,5-6A15.2,15.2,0,0,0,42,19.7c.67-2.34.25-4.82.68-7.19a15.59,15.59,0,0,1,3-6.61c.29-.39-.36-.76-.65-.38Z"/></g></g></g></svg>