<svg xmlns="http://www.w3.org/2000/svg" xmlns:xlink="http://www.w3.org/1999/xlink" viewBox="0 0 417.81 416.33"><defs><style>.cls-1{fill:#ff9881;}.cls-2{clip-path:url(#clip-path);}.cls-3{clip-path:url(#clip-path-2);}.cls-4{clip-path:url(#clip-path-3);}.cls-5{clip-path:url(#clip-path-4);}.cls-6{clip-path:url(#clip-path-5);}.cls-7{clip-path:url(#clip-path-6);}.cls-8{clip-path:url(#clip-path-7);}.cls-9{clip-path:url(#clip-path-8);}.cls-10{clip-path:url(#clip-path-9);}.cls-11{clip-path:url(#clip-path-10);}.cls-12{clip-path:url(#clip-path-11);}.cls-13{clip-path:url(#clip-path-12);}.cls-14{clip-path:url(#clip-path-13);}.cls-15{clip-path:url(#clip-path-14);}.cls-16{clip-path:url(#clip-path-15);}.cls-17{clip-path:url(#clip-path-16);}.cls-18{clip-path:url(#clip-path-17);}.cls-19{clip-path:url(#clip-path-18);}.cls-20{clip-path:url(#clip-path-19);}.cls-21{clip-path:url(#clip-path-20);}.cls-22{clip-path:url(#clip-path-21);}.cls-23{clip-path:url(#clip-path-22);}.cls-24{clip-path:url(#clip-path-23);}.cls-25{clip-path:url(#clip-path-24);}.cls-26{clip-path:url(#clip-path-25);}.cls-27{clip-path:url(#clip-path-26);}.cls-28{clip-path:url(#clip-path-27);}.cls-29{clip-path:url(#clip-path-28);}.cls-30{clip-path:url(#clip-path-29);}.cls-31{clip-path:url(#clip-path-30);}.cls-32{clip-path:url(#clip-path-31);}.cls-33{clip-path:url(#clip-path-32);}.cls-34{clip-path:url(#clip-path-33);}.cls-35{clip-path:url(#clip-path-34);}.cls-36{clip-path:url(#clip-path-35);}.cls-37{clip-path:url(#clip-path-36);}.cls-38{clip-path:url(#clip-path-37);}.cls-39{clip-path:url(#clip-path-38);}.cls-40{clip-path:url(#clip-path-39);}.cls-41{clip-path:url(#clip-path-40);}.cls-42{clip-path:url(#clip-path-41);}.cls-43{clip-path:url(#clip-path-42);}</style><clipPath id="clip-path"><path class="cls-1" d="M366.32,10.81l-4.09,3c-3.15,2.37-6.45,4.53-9.61,6.87l4.05-3C359.84,15.36,363.13,13.15,366.32,10.81Z"/></clipPath><clipPath id="clip-path-2"><path class="cls-1" d="M338.71,34l-4.1,3a1.35,1.35,0,0,1-.84.3,1.6,1.6,0,0,1-1.18-2.64A114.78,114.78,0,0,1,353,14.54l4.09-3a116.25,116.25,0,0,0-20.29,20.16A1.62,1.62,0,0,0,338,34.31,1.49,1.49,0,0,0,338.71,34Z"/></clipPath><clipPath id="clip-path-3"><path class="cls-1" d="M206.16,3.35l-.1.08,4.09-3,.1-.07C209,1.18,207.43,2.48,206.16,3.35Z"/></clipPath><clipPath id="clip-path-4"><path class="cls-1" d="M157.05,18.8a155.34,155.34,0,0,0-20.17,12.8l4.09-3a151.93,151.93,0,0,1,20.17-12.8C176,8,192.4,4.66,209.11,4.43a2.07,2.07,0,0,0,1.18-.33l-4.1,3a2.17,2.17,0,0,1-1.18.35C188.31,7.7,171.92,11.05,157.05,18.8Z"/></clipPath><clipPath id="clip-path-5"><path class="cls-1" d="M86.49,30.63l-4.09,3a1.54,1.54,0,0,1-.9.32,1.58,1.58,0,0,1-.48-.1c-4.34-1.7-7.93-5.36-11.56-8.27-4.4-3.55-8.92-7.09-13.1-10.86a1.7,1.7,0,0,1,0-2.41,1.39,1.39,0,0,1,.27-.21l4.09-3a1.7,1.7,0,0,0-.51,2.34,1.61,1.61,0,0,0,.24.28c4.17,3.81,8.69,7.31,13.1,10.85,3.62,2.91,7.21,6.58,11.54,8.27a1.19,1.19,0,0,0,.49.1A1.55,1.55,0,0,0,86.49,30.63Z"/></clipPath><clipPath id="clip-path-6"><path class="cls-1" d="M253.65,297.08c.38-.88.77-1.75,1.19-2.6l4.1-3c-.42.87-.81,1.73-1.19,2.61Z"/></clipPath><clipPath id="clip-path-7"><path class="cls-1" d="M257.29,294.64l-4.09,3a1.22,1.22,0,0,1-.69.24,1.84,1.84,0,0,1-1.34-.69,1.61,1.61,0,0,1-.23-1.71c9.66-22,27.42-38.63,43.93-55.54s30.72-34.66,36-58.15c5.74-25.88,2.59-54.89-4.1-80.35-3.35-12.78-8.46-25.23-16.15-36-7.43-10.47-17-19.27-26.93-27.28C273,29.56,261.62,21.3,249,15.72c-13.13-5.8-27.37-8.19-41.63-8.27a2.21,2.21,0,0,1-1.18-.33,2.38,2.38,0,0,1-.5-3.31,2.28,2.28,0,0,1,.37-.39l4.09-3a2.36,2.36,0,0,0-.28,3.33,2.1,2.1,0,0,0,.41.38,2.21,2.21,0,0,0,1.18.33c14.26.11,28.5,2.5,41.63,8.28,12.62,5.57,24,13.83,34.68,22.45,10,8.06,19.47,16.84,26.93,27.32,7.7,10.78,12.79,23.24,16.17,36,6.69,25.46,9.85,54.48,4.1,80.35-5.21,23.48-19.56,41.36-36,58.15s-34.27,33.47-43.93,55.48a1.66,1.66,0,0,0,.2,1.76,1.75,1.75,0,0,0,1.33.67A1.09,1.09,0,0,0,257.29,294.64Z"/></clipPath><clipPath id="clip-path-8"><path class="cls-1" d="M252.89,299a2,2,0,0,1-1.73-1.75l4.09-3A1.94,1.94,0,0,0,257,296c6.82,1.18,16.69,2.8,18.91,10.63,1.45,5.1-1.18,8.9-5,11.75l-4.05,3.05c3.83-2.84,6.44-6.64,5-11.75C269.58,301.78,259.72,300.14,252.89,299Z"/></clipPath><clipPath id="clip-path-9"><path class="cls-1" d="M269.55,324.84a38,38,0,0,1-5.91,3.54l4.09-3a36.56,36.56,0,0,0,6-3.54Z"/></clipPath><clipPath id="clip-path-10"><path class="cls-1" d="M255.25,331.26a2.19,2.19,0,0,1-1.44-2.75,2.13,2.13,0,0,1,.74-1.07l4.09-3a2.19,2.19,0,0,0,.7,3.83c6.15,2.36,18.24-.31,18.23,9.22a10.73,10.73,0,0,1-4.83,8.89l-4.09,3a10.71,10.71,0,0,0,4.83-8.9C273.48,331,261.39,333.67,255.25,331.26Z"/></clipPath><clipPath id="clip-path-11"><path class="cls-1" d="M275.24,350l-4.09,3a32.12,32.12,0,0,1-6.15,3.48l4.09-3A31.09,31.09,0,0,0,275.24,350Z"/></clipPath><clipPath id="clip-path-12"><path class="cls-1" d="M256.69,359.29a2.36,2.36,0,0,1-1.38-4.11l4.09-3a2.35,2.35,0,0,0-.16,3.33,2.41,2.41,0,0,0,1.54.77c9,.49,21.2,7.55,12.52,17.64a14.59,14.59,0,0,1-2.48,2.36l-4.1,3.05a15.53,15.53,0,0,0,2.5-2.36C277.89,366.83,265.72,359.78,256.69,359.29Z"/></clipPath><clipPath id="clip-path-13"><path class="cls-1" d="M264.9,385.56a40.38,40.38,0,0,1-13.36,2.58l4.09-3A39.88,39.88,0,0,0,269,382.52a20.74,20.74,0,0,0,4.48-2.51l-4,3A20.75,20.75,0,0,1,264.9,385.56Z"/></clipPath><clipPath id="clip-path-14"><polygon class="cls-1" points="234.77 379.97 230.68 383.01 228.32 383.01 232.41 379.98 234.77 379.97"/></clipPath><clipPath id="clip-path-15"><polygon class="cls-1" points="228.34 382.95 232.43 379.91 232.43 379.91 228.34 382.94 228.34 382.95"/></clipPath><clipPath id="clip-path-16"><polygon class="cls-1" points="164.03 300.79 163.85 300.4 167.94 297.36 168.12 297.76 168.12 297.85 164.03 300.87 164.03 300.79"/></clipPath><clipPath id="clip-path-17"><path class="cls-1" d="M164.06,300.87l4.09-3a1.67,1.67,0,0,1-.6,2l-4.09,3A1.7,1.7,0,0,0,164.06,300.87Z"/></clipPath><clipPath id="clip-path-18"><path class="cls-1" d="M178.05,302.09a108.34,108.34,0,0,0-13.88,2.08l.73-.54.52-.38.79-.59,2-1.52a110.15,110.15,0,0,1,13.88-2.09c4.62-.47,9.28-.67,13.94-.68,3.45,0,6.92.08,10.37.23q6.66.28,13.33.79c2.47.18,4.92.61,7.35.6a14.86,14.86,0,0,0,4.14-.55,1.42,1.42,0,0,0,.46-.23l-4.08,3a1.8,1.8,0,0,1-.46.23A15.31,15.31,0,0,1,223,303c-2.42,0-4.88-.41-7.35-.59-4.45-.33-8.89-.61-13.33-.8-3.45-.14-6.91-.24-10.38-.23A137.92,137.92,0,0,0,178.05,302.09Z"/></clipPath><clipPath id="clip-path-19"><path class="cls-1" d="M128.91,32.16c1.91-1.51,3.84-3,5.8-4.44l4.09-3q-2.94,2.18-5.8,4.42C111.37,46,93.61,65.61,86,92.57c-7.17,25.53-10.52,54.61-6.78,81,3.61,25.58,16.54,45.87,34.26,64.14,18.4,19.05,40.05,36,51.4,60.52.18.38.36.77.52,1.18a1.2,1.2,0,0,0,1.19.82,1.54,1.54,0,0,0,.91-.31l-4.09,3a1.57,1.57,0,0,1-.91.32,1.18,1.18,0,0,1-1.18-.82l-.52-1.18c-11.36-24.53-33-41.47-51.41-60.51-17.72-18.28-30.62-38.56-34.26-64.15-3.72-26.37-.38-55.45,6.79-81C89.52,68.64,107.28,49,128.91,32.16Z"/></clipPath><clipPath id="clip-path-20"><path class="cls-1" d="M226.89,406.49c4.73-3.48,5.84-13.9,2.36-19.11l3.62-2.68.48-.36c3.55,5.23,2.37,15.64-2.36,19.11Z"/></clipPath><clipPath id="clip-path-21"><path class="cls-1" d="M164.17,304.17a32.22,32.22,0,0,0-11.69,5l4.09-3a32.2,32.2,0,0,1,11.69-4.95l-1,.72-1.07.8-.79.59-.27.19-.75.55A1.3,1.3,0,0,1,164.17,304.17Z"/></clipPath><clipPath id="clip-path-22"><polygon class="cls-1" points="159.36 329.18 158.97 329.1 163.06 326.06 163.45 326.16 159.36 329.18"/></clipPath><clipPath id="clip-path-23"><path class="cls-1" d="M159.83,332.22a1.66,1.66,0,0,0,.55-2.29,1.72,1.72,0,0,0-1-.75l4.09-3a1.67,1.67,0,0,1,1.22,2,1.72,1.72,0,0,1-.75,1Z"/></clipPath><clipPath id="clip-path-24"><path class="cls-1" d="M143,319.05c-.08-5.51,2.89-9.75,7-12.78l4.09-3c-4.07,3-7.09,7.26-7,12.77.11,6.64,5,10.29,10.58,12.23a33.56,33.56,0,0,0,4.87,1.29h.37a1.72,1.72,0,0,0,1-.33l-4.09,3a1.65,1.65,0,0,1-1,.34h-.38a35.6,35.6,0,0,1-4.87-1.28C148,329.29,143.11,325.65,143,319.05Z"/></clipPath><clipPath id="clip-path-25"><path class="cls-1" d="M175.54,330.57c-5.45.45-13.14,1.18-19.16,3.9l4.09-3c6-2.73,13.71-3.44,19.17-3.89,3.06-.26,6.14-.36,9.22-.38,6.17,0,12.34.38,18.47.88,7.54.6,15.59,2,23.33,2a49,49,0,0,0,5.68-.37,2,2,0,0,0,1-.4l-4.08,3a2.25,2.25,0,0,1-1,.4,49.18,49.18,0,0,1-5.69.3c-7.74,0-15.79-1.39-23.33-2-6.13-.5-12.31-.9-18.47-.88Q180.16,330.2,175.54,330.57Z"/></clipPath><clipPath id="clip-path-26"><path class="cls-1" d="M193.56,382.25c-.93.1-1.86.23-2.77.39l2.06-1.51,2-1.51h0l-4.09,3,4.09-3c.9-.17,1.82-.3,2.75-.41l-1,.74-1.06.78-1,.79-.51.38A3.27,3.27,0,0,1,193.56,382.25Z"/></clipPath><clipPath id="clip-path-27"><path class="cls-1" d="M190.79,382.64a1.27,1.27,0,0,0-.45.19l4.09-3a1,1,0,0,1,.46-.19l-2,1.51-.55.4-.52.39-.26.19-.24.18A3.36,3.36,0,0,1,190.79,382.64Z"/></clipPath><clipPath id="clip-path-28"><path class="cls-1" d="M190.81,385a1.31,1.31,0,0,1-.81-1.65,1.38,1.38,0,0,1,.34-.52l4.09-3a1.28,1.28,0,0,0-.06,1.82,1.42,1.42,0,0,0,.53.34c.31.09.62.18.94.25,5.72,1.39,12.17,1,18,1.31q9.75.45,19.49.81l1.45.06c1.18,0,2.36.1,3.64.17,4.5.25,9.3.61,14,.6,1.06,0,2.12,0,3.19-.07l-2.37,1.71-.79.59-.26.19-.25.19c-.14.11-.34.24-.47.36-1.06,0-2.13.07-3.19.07-4.73,0-9.53-.36-14-.61l-3.64-.17h-1.46q-9.72-.36-19.47-.82c-5.83-.29-12.27.08-18-1.31Z"/></clipPath><clipPath id="clip-path-29"><path class="cls-1" d="M190.06,380.92l.09-.09,4.09-3-.09.07a19,19,0,0,0-3.87,4.37l-1,.73-.53.39-1.08.8-.52.39-1,.73A18.55,18.55,0,0,1,190.06,380.92Z"/></clipPath><clipPath id="clip-path-30"><path class="cls-1" d="M156.38,334.47a21.33,21.33,0,0,0-3.82,2.19l4.1-3a21,21,0,0,1,3.81-2.21l-2,1.51-1.32,1-.49.37Z"/></clipPath><clipPath id="clip-path-31"><path class="cls-1" d="M160.59,356.21l4.09-3c.21.17.42.36.63.56a.89.89,0,0,1,0,1.28l0,0-4.1,3a.89.89,0,0,0,.13-1.25l-.06-.06A5.17,5.17,0,0,0,160.59,356.21Z"/></clipPath><clipPath id="clip-path-32"><path class="cls-1" d="M160.59,356.21a7.81,7.81,0,0,0-2.51-1.18l4.09-3a8.36,8.36,0,0,1,2.51,1.18Z"/></clipPath><clipPath id="clip-path-33"><path class="cls-1" d="M143.55,349.48c-2.09-6.55,1.51-12.34,6.57-16.1l4.09-3c-5.06,3.75-8.66,9.54-6.57,16.11,1,3,4.1,6.06,7.69,7.86a14.07,14.07,0,0,0,6.22,1.62,8.75,8.75,0,0,0,1.44-.12,8.06,8.06,0,0,0,1.18-.27,7,7,0,0,0,1-.44h.11L161.14,358l-.09.07a7,7,0,0,1-2.2.71,11.65,11.65,0,0,1-1.44.12,14.38,14.38,0,0,1-6.22-1.62C147.65,355.56,144.53,352.52,143.55,349.48Z"/></clipPath><clipPath id="clip-path-34"><path class="cls-1" d="M177.79,356.53c-4.84.38-11.7.64-17.72,2l3.6-2.67.49-.35c6.06-1.41,12.91-1.67,17.72-2.05S191.33,353,196,353q5.76,0,11.52.24c7.32.3,15.07,1.7,22.45,1.67,1.46,0,2.9-.06,4.33-.19a1.78,1.78,0,0,0,.94-.36l-4.09,3a1.74,1.74,0,0,1-.95.36c-1.42.13-2.86.19-4.32.2-7.42,0-15.17-1.38-22.45-1.68-3.84-.15-7.68-.25-11.52-.23C187.2,356,182.48,356.17,177.79,356.53Z"/></clipPath><clipPath id="clip-path-35"><path class="cls-1" d="M185.11,404.84a20.07,20.07,0,0,1,1.08-19.55l4.09-3a20.1,20.1,0,0,0-1.08,19.57c4.07,8.27,12.26,11.5,20.85,11.48a22.18,22.18,0,0,0,3.25-.16c6.32-.6,14.84-1.61,20.43-5.76l-4.09,3c-5.59,4.14-14.11,5.15-20.44,5.76-1.07.09-2.16.15-3.24.15C197.35,416.35,189.18,413.07,185.11,404.84Z"/></clipPath><clipPath id="clip-path-36"><path class="cls-1" d="M158.9,358.86a23.52,23.52,0,0,0-8,3.54l4.1-3a23.47,23.47,0,0,1,8-3.54A31.8,31.8,0,0,1,158.9,358.86Z"/></clipPath><clipPath id="clip-path-37"><path class="cls-1" d="M167.32,383.43l-4.09,3a1.57,1.57,0,0,1-1,.33,1.33,1.33,0,0,1-.45-.07c-7.36-2.1-17.47-8-18.84-16.35-.8-4.87,1.5-8.49,4.94-11l4.09-3c-3.44,2.56-5.74,6.16-4.94,11,1.37,8.33,11.47,14.26,18.84,16.36a1.09,1.09,0,0,0,.44,0A1.57,1.57,0,0,0,167.32,383.43Z"/></clipPath><clipPath id="clip-path-38"><path class="cls-1" d="M50.4,141.86l-4.09,3a2.24,2.24,0,0,1-1.18.41c-4.23.31-8.5.44-12.77.45-10.21,0-20.52-.62-30.6-1.1-2.3-.11-2.06-2.53-.89-3.39l4.1-3c-1.19.87-1.4,3.29.89,3.4,10.08.48,20.39,1.18,30.6,1.11,4.27,0,8.54-.14,12.77-.45A2.17,2.17,0,0,0,50.4,141.86Z"/></clipPath><clipPath id="clip-path-39"><path class="cls-1" d="M58.34,81.54l-4.09,3a2.07,2.07,0,0,1-1.18.4,2.64,2.64,0,0,1-1.1-.25A139.66,139.66,0,0,0,20.1,75.1c-1.84-.32-1.71-2.44-.52-3.32l4.07-3c-1.18.89-1.34,3,.51,3.32A140,140,0,0,1,56,81.68a2.6,2.6,0,0,0,1.1.25A2.13,2.13,0,0,0,58.34,81.54Z"/></clipPath><clipPath id="clip-path-40"><path class="cls-1" d="M400.72,68.81l-4.09,3c-3.72,2.74-9,3.54-13.3,5.27-5.13,2-12.28,4.23-17,7.75l4.09-3c4.73-3.54,11.89-5.73,17-7.76C391.68,72.38,397.05,71.56,400.72,68.81Z"/></clipPath><clipPath id="clip-path-41"><path class="cls-1" d="M368.43,83.51l-4.09,3a1.32,1.32,0,0,1-1.85-.3,1.33,1.33,0,0,1-.09-1.4A16.21,16.21,0,0,1,366.19,81l4.09-3a16.4,16.4,0,0,0-3.79,3.83,1.28,1.28,0,0,0,.46,1.76,1.31,1.31,0,0,0,.72.18A1.24,1.24,0,0,0,368.43,83.51Z"/></clipPath><clipPath id="clip-path-42"><path class="cls-1" d="M417,140.62l-4.09,3a1.94,1.94,0,0,1-1.18.36h-.11c-12.63-.44-25.59-.21-38.14-2-1.56-.23-1.42-2.12-.41-2.86l4.08-3c-1,.76-1.18,2.65.42,2.86,12.55,1.76,25.51,1.54,38.14,2h.11A1.91,1.91,0,0,0,417,140.62Z"/></clipPath></defs><title>LOGONavBar</title><g id="Layer_2" data-name="Layer 2"><g id="Layer_1-2" data-name="Layer 1"><g id="Layer_3" data-name="Layer 3"><path class="cls-1" d="M366.32,10.81l-4.09,3c-3.15,2.37-6.45,4.53-9.61,6.87l4.05-3C359.84,15.36,363.13,13.15,366.32,10.81Z"/><path class="cls-1" d="M366.32,10.81l-4.09,3c-3.15,2.37-6.45,4.53-9.61,6.87l4.05-3C359.84,15.36,363.13,13.15,366.32,10.81Z"/><g class="cls-2"><path class="cls-1" d="M366.32,10.81l-4.09,3c-3.15,2.37-6.45,4.53-9.61,6.87l4.05-3c3.17-2.37,6.46-4.54,9.62-6.88"/></g><path class="cls-1" d="M338.71,34l-4.1,3a1.35,1.35,0,0,1-.84.3,1.6,1.6,0,0,1-1.18-2.64A114.78,114.78,0,0,1,353,14.54l4.09-3a116.25,116.25,0,0,0-20.29,20.16A1.62,1.62,0,0,0,338,34.31,1.49,1.49,0,0,0,338.71,34Z"/><path class="cls-1" d="M338.71,34l-4.1,3a1.35,1.35,0,0,1-.84.3,1.6,1.6,0,0,1-1.18-2.64A114.78,114.78,0,0,1,353,14.54l4.09-3a116.25,116.25,0,0,0-20.29,20.16A1.62,1.62,0,0,0,338,34.31,1.49,1.49,0,0,0,338.71,34Z"/><g class="cls-3"><path class="cls-1" d="M338.71,34l-4.1,3a1.35,1.35,0,0,1-.84.3,1.6,1.6,0,0,1-1.18-2.64A114.78,114.78,0,0,1,353,14.54l4.09-3a116.25,116.25,0,0,0-20.29,20.16A1.62,1.62,0,0,0,338,34.31a1.51,1.51,0,0,0,.85-.3"/></g><path class="cls-1" d="M368.46,5c1.51,0,2.93,1.8,1.47,3-5.23,4.36-11.16,7.87-16.44,12.19s-9.78,9-14.58,13.67a1.56,1.56,0,0,1-1.05.48,1.62,1.62,0,0,1-1.57-1.65,1.6,1.6,0,0,1,.39-1c8-10,19.11-21.18,31-26.54A1.7,1.7,0,0,1,368.46,5Z"/><path class="cls-1" d="M206.16,3.35l-.1.08,4.09-3,.1-.07C209,1.18,207.43,2.48,206.16,3.35Z"/><path class="cls-1" d="M206.16,3.35l-.1.08,4.09-3,.1-.07C209,1.18,207.43,2.48,206.16,3.35Z"/><g class="cls-4"><path class="cls-1" d="M210.25.32l-4.09,3-.1.08,4.09-3,.1-.07"/></g><path class="cls-1" d="M157.05,18.8a155.34,155.34,0,0,0-20.17,12.8l4.09-3a151.93,151.93,0,0,1,20.17-12.8C176,8,192.4,4.66,209.11,4.43a2.07,2.07,0,0,0,1.18-.33l-4.1,3a2.17,2.17,0,0,1-1.18.35C188.31,7.7,171.92,11.05,157.05,18.8Z"/><path class="cls-1" d="M157.05,18.8a155.34,155.34,0,0,0-20.17,12.8l4.09-3a151.93,151.93,0,0,1,20.17-12.8C176,8,192.4,4.66,209.11,4.43a2.07,2.07,0,0,0,1.18-.33l-4.1,3a2.17,2.17,0,0,1-1.18.35C188.31,7.7,171.92,11.05,157.05,18.8Z"/><g class="cls-5"><path class="cls-1" d="M210.28,4.1l-4.09,3a2.17,2.17,0,0,1-1.18.35c-16.71.22-33.09,3.54-48,11.33a155.38,155.38,0,0,0-20.18,12.79l4.1-3a151.93,151.93,0,0,1,20.17-12.8C176,8,192.39,4.62,209.09,4.4a2.18,2.18,0,0,0,1.19-.33"/></g><path class="cls-1" d="M86.49,30.63l-4.09,3a1.54,1.54,0,0,1-.9.32,1.58,1.58,0,0,1-.48-.1c-4.34-1.7-7.93-5.36-11.56-8.27-4.4-3.55-8.92-7.09-13.1-10.86a1.7,1.7,0,0,1,0-2.41,1.39,1.39,0,0,1,.27-.21l4.09-3a1.7,1.7,0,0,0-.51,2.34,1.61,1.61,0,0,0,.24.28c4.17,3.81,8.69,7.31,13.1,10.85,3.62,2.91,7.21,6.58,11.54,8.27a1.19,1.19,0,0,0,.49.1A1.55,1.55,0,0,0,86.49,30.63Z"/><path class="cls-1" d="M86.49,30.63l-4.09,3a1.54,1.54,0,0,1-.9.32,1.58,1.58,0,0,1-.48-.1c-4.34-1.7-7.93-5.36-11.56-8.27-4.4-3.55-8.92-7.09-13.1-10.86a1.7,1.7,0,0,1,0-2.41,1.39,1.39,0,0,1,.27-.21l4.09-3a1.7,1.7,0,0,0-.51,2.34,1.61,1.61,0,0,0,.24.28c4.17,3.81,8.69,7.31,13.1,10.85,3.62,2.91,7.21,6.58,11.54,8.27a1.19,1.19,0,0,0,.49.1A1.55,1.55,0,0,0,86.49,30.63Z"/><g class="cls-6"><path class="cls-1" d="M86.49,30.63l-4.09,3a1.54,1.54,0,0,1-.9.32,1.58,1.58,0,0,1-.48-.1c-4.34-1.7-7.93-5.36-11.56-8.27-4.4-3.55-8.92-7.09-13.1-10.86a1.7,1.7,0,0,1,0-2.41,1.39,1.39,0,0,1,.27-.21l4.09-3a1.7,1.7,0,0,0-.51,2.34,1.61,1.61,0,0,0,.24.28c4.17,3.81,8.69,7.31,13.1,10.85,3.62,2.91,7.21,6.58,11.54,8.27a1.19,1.19,0,0,0,.49.1,1.55,1.55,0,0,0,.9-.31"/></g><path class="cls-1" d="M61.66,8.77A1.5,1.5,0,0,1,62.5,9c4.73,3.13,9.18,6.67,13.68,10.09,3.68,2.79,8.17,5.44,10.84,9.21a1.77,1.77,0,0,1-.7,2.39,1.91,1.91,0,0,1-.73.21,1.24,1.24,0,0,1-.5-.1c-4.33-1.69-7.93-5.36-11.54-8.27C69.14,19,64.62,15.48,60.44,11.72a1.75,1.75,0,0,1,1.22-3Z"/><path class="cls-1" d="M253.65,297.08c.38-.88.77-1.75,1.19-2.6l4.1-3c-.42.87-.81,1.73-1.19,2.61Z"/><path class="cls-1" d="M253.65,297.08c.38-.88.77-1.75,1.19-2.6l4.1-3c-.42.87-.81,1.73-1.19,2.61Z"/><g class="cls-7"><path class="cls-1" d="M257.29,294.64l-4.09,3a1.3,1.3,0,0,0,.45-.59c.38-.88.77-1.75,1.19-2.6l4.1-3c-.42.87-.81,1.73-1.19,2.61a1.37,1.37,0,0,1-.44.59"/></g><path class="cls-1" d="M257.29,294.64l-4.09,3a1.22,1.22,0,0,1-.69.24,1.84,1.84,0,0,1-1.34-.69,1.61,1.61,0,0,1-.23-1.71c9.66-22,27.42-38.63,43.93-55.54s30.72-34.66,36-58.15c5.74-25.88,2.59-54.89-4.1-80.35-3.35-12.78-8.46-25.23-16.15-36-7.43-10.47-17-19.27-26.93-27.28C273,29.56,261.62,21.3,249,15.72c-13.13-5.8-27.37-8.19-41.63-8.27a2.21,2.21,0,0,1-1.18-.33,2.38,2.38,0,0,1-.5-3.31,2.28,2.28,0,0,1,.37-.39l4.09-3a2.36,2.36,0,0,0-.28,3.33,2.1,2.1,0,0,0,.41.38,2.21,2.21,0,0,0,1.18.33c14.26.11,28.5,2.5,41.63,8.28,12.62,5.57,24,13.83,34.68,22.45,10,8.06,19.47,16.84,26.93,27.32,7.7,10.78,12.79,23.24,16.17,36,6.69,25.46,9.85,54.48,4.1,80.35-5.21,23.48-19.56,41.36-36,58.15s-34.27,33.47-43.93,55.48a1.66,1.66,0,0,0,.2,1.76,1.75,1.75,0,0,0,1.33.67A1.09,1.09,0,0,0,257.29,294.64Z"/><path class="cls-1" d="M257.29,294.64l-4.09,3a1.22,1.22,0,0,1-.69.24,1.84,1.84,0,0,1-1.34-.69,1.61,1.61,0,0,1-.23-1.71c9.66-22,27.42-38.63,43.93-55.54s30.72-34.66,36-58.15c5.74-25.88,2.59-54.89-4.1-80.35-3.35-12.78-8.46-25.23-16.15-36-7.43-10.47-17-19.27-26.93-27.28C273,29.56,261.62,21.3,249,15.72c-13.13-5.8-27.37-8.19-41.63-8.27a2.21,2.21,0,0,1-1.18-.33,2.38,2.38,0,0,1-.5-3.31,2.28,2.28,0,0,1,.37-.39l4.09-3a2.36,2.36,0,0,0-.28,3.33,2.1,2.1,0,0,0,.41.38,2.21,2.21,0,0,0,1.18.33c14.26.11,28.5,2.5,41.63,8.28,12.62,5.57,24,13.83,34.68,22.45,10,8.06,19.47,16.84,26.93,27.32,7.7,10.78,12.79,23.24,16.17,36,6.69,25.46,9.85,54.48,4.1,80.35-5.21,23.48-19.56,41.36-36,58.15s-34.27,33.47-43.93,55.48a1.66,1.66,0,0,0,.2,1.76,1.75,1.75,0,0,0,1.33.67A1.09,1.09,0,0,0,257.29,294.64Z"/><g class="cls-8"><path class="cls-1" d="M257.29,294.64l-4.09,3a1.22,1.22,0,0,1-.69.24,1.84,1.84,0,0,1-1.34-.69,1.61,1.61,0,0,1-.23-1.71c9.66-22,27.42-38.63,43.93-55.54s30.72-34.66,36-58.15c5.74-25.88,2.59-54.89-4.1-80.35-3.35-12.78-8.46-25.23-16.15-36-7.43-10.47-17-19.27-26.93-27.28C273,29.56,261.62,21.3,249,15.72c-13.13-5.8-27.37-8.19-41.63-8.27a2.21,2.21,0,0,1-1.18-.33,2.38,2.38,0,0,1-.5-3.31,2.28,2.28,0,0,1,.37-.39l4.09-3a2.36,2.36,0,0,0-.28,3.33,2.1,2.1,0,0,0,.41.38,2.21,2.21,0,0,0,1.18.33c14.26.11,28.5,2.5,41.63,8.28,12.62,5.57,24,13.83,34.68,22.45,10,8.06,19.47,16.84,26.93,27.32,7.7,10.78,12.79,23.24,16.17,36,6.69,25.46,9.85,54.48,4.1,80.35-5.21,23.48-19.56,41.36-36,58.15s-34.27,33.47-43.93,55.48a1.66,1.66,0,0,0,.2,1.76,1.75,1.75,0,0,0,1.33.67,1.1,1.1,0,0,0,.7-.22"/></g><path class="cls-1" d="M211.41,0a109.76,109.76,0,0,1,43.92,8.83c14.18,6.27,26.88,15.79,38.75,25.68,9.88,8.27,19.12,17.37,26.25,28.11,7.84,11.81,12.4,25.12,15.42,38.84,5.57,25.3,8.69,52.92,3.1,78.45-5.21,23.77-20,42.15-36.63,59.08-16,16.25-33.46,31.61-43.3,52.45-.41.87-.8,1.73-1.18,2.61a1.17,1.17,0,0,1-1.18.82,1.8,1.8,0,0,1-1.31-.64,1.66,1.66,0,0,1-.24-1.72c9.69-22.05,27.42-38.66,44-55.52s30.78-34.67,36-58.15c5.75-25.87,2.59-54.89-4.1-80.35-3.35-12.77-8.45-25.23-16.15-36C307.24,52,297.79,43.22,287.77,35.19c-10.72-8.61-22.06-16.87-34.68-22.45C240,6.93,225.72,4.54,211.46,4.47a2.3,2.3,0,0,1-1.18-.33A2.36,2.36,0,0,1,209.8.83a2.37,2.37,0,0,1,.48-.47A2.07,2.07,0,0,1,211.41,0Z"/><path class="cls-1" d="M252.89,299a2,2,0,0,1-1.73-1.75l4.09-3A1.94,1.94,0,0,0,257,296c6.82,1.18,16.69,2.8,18.91,10.63,1.45,5.1-1.18,8.9-5,11.75l-4.05,3.05c3.83-2.84,6.44-6.64,5-11.75C269.58,301.78,259.72,300.14,252.89,299Z"/><path class="cls-1" d="M252.89,299a2,2,0,0,1-1.73-1.75l4.09-3A1.94,1.94,0,0,0,257,296c6.82,1.18,16.69,2.8,18.91,10.63,1.45,5.1-1.18,8.9-5,11.75l-4.05,3.05c3.83-2.84,6.44-6.64,5-11.75C269.58,301.78,259.72,300.14,252.89,299Z"/><g class="cls-9"><path class="cls-1" d="M270.93,318.37l-4.09,3c3.83-2.84,6.44-6.64,5-11.75-2.25-7.87-12.11-9.45-18.91-10.63a1.93,1.93,0,0,1-1.72-1.75l4.05-3A1.94,1.94,0,0,0,257,296c6.82,1.18,16.69,2.8,18.91,10.63,1.45,5.1-1.18,8.9-5,11.75"/></g><path class="cls-1" d="M269.55,324.84a38,38,0,0,1-5.91,3.54l4.09-3a36.56,36.56,0,0,0,6-3.54Z"/><path class="cls-1" d="M269.55,324.84a38,38,0,0,1-5.91,3.54l4.09-3a36.56,36.56,0,0,0,6-3.54Z"/><g class="cls-10"><path class="cls-1" d="M273.64,321.8l-4.09,3a38,38,0,0,1-5.91,3.54l4.09-3a36.56,36.56,0,0,0,6-3.54"/></g><path class="cls-1" d="M255.25,331.26a2.19,2.19,0,0,1-1.44-2.75,2.13,2.13,0,0,1,.74-1.07l4.09-3a2.19,2.19,0,0,0,.7,3.83c6.15,2.36,18.24-.31,18.23,9.22a10.73,10.73,0,0,1-4.83,8.89l-4.09,3a10.71,10.71,0,0,0,4.83-8.9C273.48,331,261.39,333.67,255.25,331.26Z"/><path class="cls-1" d="M255.25,331.26a2.19,2.19,0,0,1-1.44-2.75,2.13,2.13,0,0,1,.74-1.07l4.09-3a2.19,2.19,0,0,0,.7,3.83c6.15,2.36,18.24-.31,18.23,9.22a10.73,10.73,0,0,1-4.83,8.89l-4.09,3a10.71,10.71,0,0,0,4.83-8.9C273.48,331,261.39,333.67,255.25,331.26Z"/><g class="cls-11"><path class="cls-1" d="M272.73,346.34l-4.09,3a10.71,10.71,0,0,0,4.83-8.9c0-9.51-12.08-6.81-18.23-9.22a2.18,2.18,0,0,1-1.44-2.75,2.13,2.13,0,0,1,.74-1.07l4.09-3a2.19,2.19,0,0,0,.7,3.83c6.15,2.36,18.24-.31,18.23,9.22a10.7,10.7,0,0,1-4.83,8.88"/></g><path class="cls-1" d="M275.24,350l-4.09,3a32.12,32.12,0,0,1-6.15,3.48l4.09-3A31.09,31.09,0,0,0,275.24,350Z"/><path class="cls-1" d="M275.24,350l-4.09,3a32.12,32.12,0,0,1-6.15,3.48l4.09-3A31.09,31.09,0,0,0,275.24,350Z"/><g class="cls-12"><path class="cls-1" d="M275.24,350l-4.09,3a32.12,32.12,0,0,1-6.15,3.48l4.09-3a31.09,31.09,0,0,0,6.15-3.48"/></g><path class="cls-1" d="M256.69,359.29a2.36,2.36,0,0,1-1.38-4.11l4.09-3a2.35,2.35,0,0,0-.16,3.33,2.41,2.41,0,0,0,1.54.77c9,.49,21.2,7.55,12.52,17.64a14.59,14.59,0,0,1-2.48,2.36l-4.1,3.05a15.53,15.53,0,0,0,2.5-2.36C277.89,366.83,265.72,359.78,256.69,359.29Z"/><path class="cls-1" d="M256.69,359.29a2.36,2.36,0,0,1-1.38-4.11l4.09-3a2.35,2.35,0,0,0-.16,3.33,2.41,2.41,0,0,0,1.54.77c9,.49,21.2,7.55,12.52,17.64a14.59,14.59,0,0,1-2.48,2.36l-4.1,3.05a15.53,15.53,0,0,0,2.5-2.36C277.89,366.83,265.72,359.78,256.69,359.29Z"/><g class="cls-13"><path class="cls-1" d="M270.82,376.23l-4.1,3.08a15.53,15.53,0,0,0,2.5-2.36c8.67-10.11-3.55-17.16-12.53-17.65a2.36,2.36,0,0,1-1.38-4.11l4.09-3a2.36,2.36,0,0,0-.16,3.34,2.44,2.44,0,0,0,1.54.76c9,.49,21.2,7.55,12.52,17.64a14.59,14.59,0,0,1-2.48,2.36"/></g><path class="cls-1" d="M264.9,385.56a40.38,40.38,0,0,1-13.36,2.58l4.09-3A39.88,39.88,0,0,0,269,382.52a20.74,20.74,0,0,0,4.48-2.51l-4,3A20.75,20.75,0,0,1,264.9,385.56Z"/><path class="cls-1" d="M264.9,385.56a40.38,40.38,0,0,1-13.36,2.58l4.09-3A39.88,39.88,0,0,0,269,382.52a20.74,20.74,0,0,0,4.48-2.51l-4,3A20.75,20.75,0,0,1,264.9,385.56Z"/><g class="cls-14"><path class="cls-1" d="M273.47,380l-4,3a20.41,20.41,0,0,1-4.48,2.53,44.6,44.6,0,0,1-16.54,2.65c-4.73,0-9.54-.36-14-.61l-3.64-.17h-1.47q-9.7-.36-19.47-.82c-5.82-.29-12.26.08-18-1.31l-.94-.25a1.29,1.29,0,0,1-.47-2.17l4.09-3a1.28,1.28,0,0,0-.06,1.82,1.33,1.33,0,0,0,.53.35c.31.09.62.17.94.24,5.71,1.4,12.17,1,18,1.31q9.75.46,19.49.82l1.45.06c1.18,0,2.36.09,3.64.16,4.5.25,9.3.62,14,.61,5.79,0,11.51-.59,16.54-2.65a20.6,20.6,0,0,0,4.48-2.52"/></g><polygon class="cls-1" points="234.77 379.97 230.68 383.01 228.32 383.01 232.41 379.98 234.77 379.97"/><polygon class="cls-1" points="234.77 379.97 230.68 383.01 228.32 383.01 232.41 379.98 234.77 379.97"/><g class="cls-15"><path class="cls-1" d="M234.77,380l-4.09,3h-2.36l4.09-3h2.36"/></g><path class="cls-1" d="M234.53,379.82l.24.15h-2.36a1.87,1.87,0,0,1,1.18-.42A1.74,1.74,0,0,1,234.53,379.82Z"/><polygon class="cls-1" points="228.34 382.95 232.43 379.91 232.43 379.91 228.34 382.94 228.34 382.95"/><polygon class="cls-1" points="228.34 382.95 232.43 379.91 232.43 379.91 228.34 382.94 228.34 382.95"/><g class="cls-16"><path class="cls-1" d="M232.4,380l-4.09,3h0l4.09-3h0"/></g><polygon class="cls-1" points="164.03 300.79 163.85 300.4 167.94 297.36 168.12 297.76 168.12 297.85 164.03 300.87 164.03 300.79"/><polygon class="cls-1" points="164.03 300.79 163.85 300.4 167.94 297.36 168.12 297.76 168.12 297.85 164.03 300.87 164.03 300.79"/><g class="cls-17"><path class="cls-1" d="M167.55,299.82l-4.09,3a1.67,1.67,0,0,0,.57-2.07l-.18-.39,4.09-3,.17.4a1.63,1.63,0,0,1-.56,2.06"/></g><path class="cls-1" d="M164.06,300.87l4.09-3a1.67,1.67,0,0,1-.6,2l-4.09,3A1.7,1.7,0,0,0,164.06,300.87Z"/><path class="cls-1" d="M164.06,300.87l4.09-3a1.67,1.67,0,0,1-.6,2l-4.09,3A1.7,1.7,0,0,0,164.06,300.87Z"/><g class="cls-18"><path class="cls-1" d="M167.55,299.82l-4.09,3a1.67,1.67,0,0,0,.57-2.07l-.18-.39,4.09-3,.17.4a1.63,1.63,0,0,1-.56,2.06"/></g><path class="cls-1" d="M178.05,302.09a108.34,108.34,0,0,0-13.88,2.08l.73-.54.52-.38.79-.59,2-1.52a110.15,110.15,0,0,1,13.88-2.09c4.62-.47,9.28-.67,13.94-.68,3.45,0,6.92.08,10.37.23q6.66.28,13.33.79c2.47.18,4.92.61,7.35.6a14.86,14.86,0,0,0,4.14-.55,1.42,1.42,0,0,0,.46-.23l-4.08,3a1.8,1.8,0,0,1-.46.23A15.31,15.31,0,0,1,223,303c-2.42,0-4.88-.41-7.35-.59-4.45-.33-8.89-.61-13.33-.8-3.45-.14-6.91-.24-10.38-.23A137.92,137.92,0,0,0,178.05,302.09Z"/><path class="cls-1" d="M178.05,302.09a108.34,108.34,0,0,0-13.88,2.08l.73-.54.52-.38.79-.59,2-1.52a110.15,110.15,0,0,1,13.88-2.09c4.62-.47,9.28-.67,13.94-.68,3.45,0,6.92.08,10.37.23q6.66.28,13.33.79c2.47.18,4.92.61,7.35.6a14.86,14.86,0,0,0,4.14-.55,1.42,1.42,0,0,0,.46-.23l-4.08,3a1.8,1.8,0,0,1-.46.23A15.31,15.31,0,0,1,223,303c-2.42,0-4.88-.41-7.35-.59-4.45-.33-8.89-.61-13.33-.8-3.45-.14-6.91-.24-10.38-.23A137.92,137.92,0,0,0,178.05,302.09Z"/><g class="cls-19"><path class="cls-1" d="M231.73,299.21l-4.08,3a1.42,1.42,0,0,1-.46.23A15.31,15.31,0,0,1,223,303c-2.42,0-4.88-.41-7.35-.59-4.45-.33-8.89-.61-13.33-.8-3.45-.14-6.91-.24-10.38-.23a137.92,137.92,0,0,0-13.93.69c-8.1.84-18.75,2-25.57,7.09l4.09-3c6.82-5.06,17.47-6.19,25.57-7.09,4.62-.47,9.28-.67,13.94-.68,3.45,0,6.92.08,10.37.23q6.66.28,13.33.79c2.47.18,4.92.61,7.35.6a14.86,14.86,0,0,0,4.14-.55,1.42,1.42,0,0,0,.46-.23"/></g><path class="cls-1" d="M128.91,32.16c1.91-1.51,3.84-3,5.8-4.44l4.09-3q-2.94,2.18-5.8,4.42C111.37,46,93.61,65.61,86,92.57c-7.17,25.53-10.52,54.61-6.78,81,3.61,25.58,16.54,45.87,34.26,64.14,18.4,19.05,40.05,36,51.4,60.52.18.38.36.77.52,1.18a1.2,1.2,0,0,0,1.19.82,1.54,1.54,0,0,0,.91-.31l-4.09,3a1.57,1.57,0,0,1-.91.32,1.18,1.18,0,0,1-1.18-.82l-.52-1.18c-11.36-24.53-33-41.47-51.41-60.51-17.72-18.28-30.62-38.56-34.26-64.15-3.72-26.37-.38-55.45,6.79-81C89.52,68.64,107.28,49,128.91,32.16Z"/><path class="cls-1" d="M128.91,32.16c1.91-1.51,3.84-3,5.8-4.44l4.09-3q-2.94,2.18-5.8,4.42C111.37,46,93.61,65.61,86,92.57c-7.17,25.53-10.52,54.61-6.78,81,3.61,25.58,16.54,45.87,34.26,64.14,18.4,19.05,40.05,36,51.4,60.52.18.38.36.77.52,1.18a1.2,1.2,0,0,0,1.19.82,1.54,1.54,0,0,0,.91-.31l-4.09,3a1.57,1.57,0,0,1-.91.32,1.18,1.18,0,0,1-1.18-.82l-.52-1.18c-11.36-24.53-33-41.47-51.41-60.51-17.72-18.28-30.62-38.56-34.26-64.15-3.72-26.37-.38-55.45,6.79-81C89.52,68.64,107.28,49,128.91,32.16Z"/><g class="cls-20"><path class="cls-1" d="M167.49,299.86l-4.09,3a1.57,1.57,0,0,1-.91.32,1.17,1.17,0,0,1-1.18-.82l-.52-1.18c-11.36-24.53-33-41.46-51.4-60.51-17.73-18.28-30.63-38.56-34.27-64.15-3.72-26.36-.38-55.44,6.79-80.95,7.58-27,25.34-46.57,47-63.46q2.88-2.25,5.8-4.43l4.09-3q-2.92,2.17-5.8,4.41C111.34,46,93.58,65.58,86,92.55c-7.17,25.52-10.51,54.6-6.78,81,3.62,25.59,16.54,45.88,34.27,64.14,18.4,19,40,36,51.4,60.53.18.38.35.77.52,1.18a1.17,1.17,0,0,0,1.18.81,1.55,1.55,0,0,0,.91-.3"/></g><path class="cls-1" d="M226.89,406.49c4.73-3.48,5.84-13.9,2.36-19.11l3.62-2.68.48-.36c3.55,5.23,2.37,15.64-2.36,19.11Z"/><path class="cls-1" d="M226.89,406.49c4.73-3.48,5.84-13.9,2.36-19.11l3.62-2.68.48-.36c3.55,5.23,2.37,15.64-2.36,19.11Z"/><g class="cls-21"><path class="cls-1" d="M231,403.45l-4.08,3c4.73-3.48,5.84-13.9,2.36-19.11l4.1-3c3.55,5.23,2.37,15.64-2.36,19.11"/></g><path class="cls-1" d="M164.17,304.17a32.22,32.22,0,0,0-11.69,5l4.09-3a32.2,32.2,0,0,1,11.69-4.95l-1,.72-1.07.8-.79.59-.27.19-.75.55A1.3,1.3,0,0,1,164.17,304.17Z"/><path class="cls-1" d="M164.17,304.17a32.22,32.22,0,0,0-11.69,5l4.09-3a32.2,32.2,0,0,1,11.69-4.95l-1,.72-1.07.8-.79.59-.27.19-.75.55A1.3,1.3,0,0,1,164.17,304.17Z"/><g class="cls-22"><path class="cls-1" d="M231.73,299.21l-4.08,3a1.42,1.42,0,0,1-.46.23A15.31,15.31,0,0,1,223,303c-2.42,0-4.88-.41-7.35-.59-4.45-.33-8.89-.61-13.33-.8-3.45-.14-6.91-.24-10.38-.23a137.92,137.92,0,0,0-13.93.69c-8.1.84-18.75,2-25.57,7.09l4.09-3c6.82-5.06,17.47-6.19,25.57-7.09,4.62-.47,9.28-.67,13.94-.68,3.45,0,6.92.08,10.37.23q6.66.28,13.33.79c2.47.18,4.92.61,7.35.6a14.86,14.86,0,0,0,4.14-.55,1.42,1.42,0,0,0,.46-.23"/></g><path class="cls-1" d="M209.08,0a2,2,0,0,1,1.18.31,2.37,2.37,0,0,0-.47,3.31,2.33,2.33,0,0,0,.47.47,2,2,0,0,1-1.18.33c-16.71.23-33.08,3.55-48,11.35-13.4,7-25.7,16.55-37,26.58-9.62,8.55-18.45,18.14-24.82,29.43-6.56,11.69-10.53,24.69-13.13,37.81-5.28,26.8-7.42,56.52,1.6,82.82,14.81,43.13,61.34,64.08,80.1,104.94a1.81,1.81,0,0,1-1.21,2.79,1.19,1.19,0,0,1-1.19-.82c-.16-.37-.34-.76-.52-1.18-11.35-24.54-33-41.47-51.4-60.52C95.8,219.35,82.9,199.06,79.26,173.48c-3.74-26.36-.39-55.44,6.78-81,7.57-27,25.33-46.55,47-63.45,10.48-8.19,21.49-15.86,33.84-21A112.54,112.54,0,0,1,209.08,0Z"/><polygon class="cls-1" points="159.36 329.18 158.97 329.1 163.06 326.06 163.45 326.16 159.36 329.18"/><polygon class="cls-1" points="159.36 329.18 158.97 329.1 163.06 326.06 163.45 326.16 159.36 329.18"/><g class="cls-23"><path class="cls-1" d="M163.92,329.2l-4.09,3a1.66,1.66,0,0,0,.55-2.29,1.72,1.72,0,0,0-1-.75l-.39-.08,4.09-3,.39.1a1.67,1.67,0,0,1,1.22,2,1.72,1.72,0,0,1-.75,1"/></g><path class="cls-1" d="M159.83,332.22a1.66,1.66,0,0,0,.55-2.29,1.72,1.72,0,0,0-1-.75l4.09-3a1.67,1.67,0,0,1,1.22,2,1.72,1.72,0,0,1-.75,1Z"/><path class="cls-1" d="M159.83,332.22a1.66,1.66,0,0,0,.55-2.29,1.72,1.72,0,0,0-1-.75l4.09-3a1.67,1.67,0,0,1,1.22,2,1.72,1.72,0,0,1-.75,1Z"/><g class="cls-24"><path class="cls-1" d="M163.92,329.2l-4.09,3a1.66,1.66,0,0,0,.55-2.29,1.72,1.72,0,0,0-1-.75l-.39-.08,4.09-3,.39.1a1.67,1.67,0,0,1,1.22,2,1.72,1.72,0,0,1-.75,1"/></g><path class="cls-1" d="M143,319.05c-.08-5.51,2.89-9.75,7-12.78l4.09-3c-4.07,3-7.09,7.26-7,12.77.11,6.64,5,10.29,10.58,12.23a33.56,33.56,0,0,0,4.87,1.29h.37a1.72,1.72,0,0,0,1-.33l-4.09,3a1.65,1.65,0,0,1-1,.34h-.38a35.6,35.6,0,0,1-4.87-1.28C148,329.29,143.11,325.65,143,319.05Z"/><path class="cls-1" d="M143,319.05c-.08-5.51,2.89-9.75,7-12.78l4.09-3c-4.07,3-7.09,7.26-7,12.77.11,6.64,5,10.29,10.58,12.23a33.56,33.56,0,0,0,4.87,1.29h.37a1.72,1.72,0,0,0,1-.33l-4.09,3a1.65,1.65,0,0,1-1,.34h-.38a35.6,35.6,0,0,1-4.87-1.28C148,329.29,143.11,325.65,143,319.05Z"/><g class="cls-25"><path class="cls-1" d="M163.92,329.2l-4.09,3a1.65,1.65,0,0,1-1,.34h-.38a35.6,35.6,0,0,1-4.87-1.28c-5.58-1.95-10.47-5.59-10.63-12.23-.09-5.51,2.88-9.75,7-12.78l4.08-3c-4.07,3-7.09,7.26-7,12.77.11,6.64,5,10.29,10.58,12.23a34.25,34.25,0,0,0,4.87,1.29h.38a1.71,1.71,0,0,0,1-.33"/></g><path class="cls-1" d="M175.54,330.57c-5.45.45-13.14,1.18-19.16,3.9l4.09-3c6-2.73,13.71-3.44,19.17-3.89,3.06-.26,6.14-.36,9.22-.38,6.17,0,12.34.38,18.47.88,7.54.6,15.59,2,23.33,2a49,49,0,0,0,5.68-.37,2,2,0,0,0,1-.4l-4.08,3a2.25,2.25,0,0,1-1,.4,49.18,49.18,0,0,1-5.69.3c-7.74,0-15.79-1.39-23.33-2-6.13-.5-12.31-.9-18.47-.88Q180.16,330.2,175.54,330.57Z"/><path class="cls-1" d="M175.54,330.57c-5.45.45-13.14,1.18-19.16,3.9l4.09-3c6-2.73,13.71-3.44,19.17-3.89,3.06-.26,6.14-.36,9.22-.38,6.17,0,12.34.38,18.47.88,7.54.6,15.59,2,23.33,2a49,49,0,0,0,5.68-.37,2,2,0,0,0,1-.4l-4.08,3a2.25,2.25,0,0,1-1,.4,49.18,49.18,0,0,1-5.69.3c-7.74,0-15.79-1.39-23.33-2-6.13-.5-12.31-.9-18.47-.88Q180.16,330.2,175.54,330.57Z"/><g class="cls-26"><path class="cls-1" d="M237.35,329.33l-4.09,3a2,2,0,0,1-1,.4,49.37,49.37,0,0,1-5.7.31c-7.74,0-15.79-1.39-23.32-2-6.14-.49-12.32-.89-18.47-.87q-4.64,0-9.24.37c-6.69.55-16.78,1.51-23,6.09l4.09-3c6.21-4.6,16.29-5.55,23-6.1,3.06-.26,6.14-.36,9.22-.38,6.17,0,12.34.38,18.47.88,7.54.6,15.59,2,23.33,2a49,49,0,0,0,5.68-.37,2,2,0,0,0,1-.4"/></g><path class="cls-1" d="M193.56,382.25c-.93.1-1.86.23-2.77.39l2.06-1.51,2-1.51h0l-4.09,3,4.09-3c.9-.17,1.82-.3,2.75-.41l-1,.74-1.06.78-1,.79-.51.38A3.27,3.27,0,0,1,193.56,382.25Z"/><path class="cls-1" d="M193.56,382.25c-.93.1-1.86.23-2.77.39l2.06-1.51,2-1.51h0l-4.09,3,4.09-3c.9-.17,1.82-.3,2.75-.41l-1,.74-1.06.78-1,.79-.51.38A3.27,3.27,0,0,1,193.56,382.25Z"/><g class="cls-27"><path class="cls-1" d="M197.64,379.21l-4.08,3c-.93.1-1.86.23-2.77.39a1.27,1.27,0,0,0-.45.19l4.09-3a1,1,0,0,1,.46-.19c.9-.17,1.82-.3,2.75-.41"/></g><path class="cls-1" d="M190.79,382.64a1.27,1.27,0,0,0-.45.19l4.09-3a1,1,0,0,1,.46-.19l-2,1.51-.55.4-.52.39-.26.19-.24.18A3.36,3.36,0,0,1,190.79,382.64Z"/><path class="cls-1" d="M190.79,382.64a1.27,1.27,0,0,0-.45.19l4.09-3a1,1,0,0,1,.46-.19l-2,1.51-.55.4-.52.39-.26.19-.24.18A3.36,3.36,0,0,1,190.79,382.64Z"/><g class="cls-28"><path class="cls-1" d="M197.64,379.21l-4.08,3c-.93.1-1.86.23-2.77.39a1.27,1.27,0,0,0-.45.19l4.09-3a1,1,0,0,1,.46-.19c.9-.17,1.82-.3,2.75-.41"/></g><path class="cls-1" d="M190.81,385a1.31,1.31,0,0,1-.81-1.65,1.38,1.38,0,0,1,.34-.52l4.09-3a1.28,1.28,0,0,0-.06,1.82,1.42,1.42,0,0,0,.53.34c.31.09.62.18.94.25,5.72,1.39,12.17,1,18,1.31q9.75.45,19.49.81l1.45.06c1.18,0,2.36.1,3.64.17,4.5.25,9.3.61,14,.6,1.06,0,2.12,0,3.19-.07l-2.37,1.71-.79.59-.26.19-.25.19c-.14.11-.34.24-.47.36-1.06,0-2.13.07-3.19.07-4.73,0-9.53-.36-14-.61l-3.64-.17h-1.46q-9.72-.36-19.47-.82c-5.83-.29-12.27.08-18-1.31Z"/><path class="cls-1" d="M190.81,385a1.31,1.31,0,0,1-.81-1.65,1.38,1.38,0,0,1,.34-.52l4.09-3a1.28,1.28,0,0,0-.06,1.82,1.42,1.42,0,0,0,.53.34c.31.09.62.18.94.25,5.72,1.39,12.17,1,18,1.31q9.75.45,19.49.81l1.45.06c1.18,0,2.36.1,3.64.17,4.5.25,9.3.61,14,.6,1.06,0,2.12,0,3.19-.07l-2.37,1.71-.79.59-.26.19-.25.19c-.14.11-.34.24-.47.36-1.06,0-2.13.07-3.19.07-4.73,0-9.53-.36-14-.61l-3.64-.17h-1.46q-9.72-.36-19.47-.82c-5.83-.29-12.27.08-18-1.31Z"/><g class="cls-29"><path class="cls-1" d="M273.47,380l-4,3a20.41,20.41,0,0,1-4.48,2.53,44.6,44.6,0,0,1-16.54,2.65c-4.73,0-9.54-.36-14-.61l-3.64-.17h-1.47q-9.7-.36-19.47-.82c-5.82-.29-12.26.08-18-1.31l-.94-.25a1.29,1.29,0,0,1-.47-2.17l4.09-3a1.28,1.28,0,0,0-.06,1.82,1.33,1.33,0,0,0,.53.35c.31.09.62.17.94.24,5.71,1.4,12.17,1,18,1.31q9.75.46,19.49.82l1.45.06c1.18,0,2.36.09,3.64.16,4.5.25,9.3.62,14,.61,5.79,0,11.51-.59,16.54-2.65a20.6,20.6,0,0,0,4.48-2.52"/></g><path class="cls-1" d="M190.06,380.92l.09-.09,4.09-3-.09.07a19,19,0,0,0-3.87,4.37l-1,.73-.53.39-1.08.8-.52.39-1,.73A18.55,18.55,0,0,1,190.06,380.92Z"/><path class="cls-1" d="M190.06,380.92l.09-.09,4.09-3-.09.07a19,19,0,0,0-3.87,4.37l-1,.73-.53.39-1.08.8-.52.39-1,.73A18.55,18.55,0,0,1,190.06,380.92Z"/><g class="cls-30"><path class="cls-1" d="M233.73,407.38l-4.09,3c-5.59,4.14-14.11,5.15-20.44,5.76-1.07.09-2.16.15-3.24.15-8.59,0-16.78-3.26-20.85-11.49a19.91,19.91,0,0,1,4.95-23.92l.09-.09,4.09-3-.09.07a19.91,19.91,0,0,0-5,23.94c4.07,8.27,12.26,11.5,20.85,11.49a20.89,20.89,0,0,0,3.25-.17c6.32-.6,14.84-1.61,20.43-5.76"/></g><path class="cls-1" d="M238.4,384.57c2.54,5.81,1.82,14.4-1,18.9-4.72,7.5-16.14,8.9-24.09,9.66-1.09.1-2.17.15-3.25.16-8.59,0-16.78-3.26-20.85-11.48a19.91,19.91,0,0,1,5-23.94,2.16,2.16,0,0,1,1.38-.52,2.11,2.11,0,0,1,2.11,1.85c-.93.11-1.85.24-2.75.4-1.18.23-1.09,2,0,2.37.31.09.62.18.93.25-4.27,5.42-5.79,12.33-1.86,18.65,3.54,5.7,9.58,7.68,15.86,7.67a19.91,19.91,0,0,0,2.43-.1c5.73-.46,13.66-1.48,18.54-4.86s6.05-14,2.5-19.24l1.46.06C236,384.44,237.16,384.5,238.4,384.57Z"/><path class="cls-1" d="M258.92,291.44c9,1.66,20.85,5.31,21.84,16.2.8,8.87-5.84,14.18-13.09,17.73,3.45.27,6.91.52,9.78,2.56a11.42,11.42,0,0,1,4.57,9.56c0,8.27-6.08,13-12.93,16,4.85,1.72,9.15,4.73,10.82,9.87,2.73,8.34-3.55,16.19-10.92,19.2-5,2.06-10.76,2.64-16.54,2.65-4.73,0-9.54-.36-14-.61-1.24-.07-2.45-.13-3.64-.16l-1.45-.06q-9.73-.36-19.49-.82c-5.81-.28-12.26.09-18-1.31-.32-.07-.63-.15-.94-.24-1.09-.31-1.25-2.13,0-2.37.9-.16,1.82-.29,2.76-.4a54.25,54.25,0,0,1,5.46-.27c5.91,0,12,.71,17.72.81l11.62.19h2.36l13.93.17c1.73,0,3.55.06,5.37.06,7.09,0,14.47-.75,19.23-6.3,8.68-10.09-3.54-17.15-12.52-17.64a2.29,2.29,0,0,1-.64-4.48c7-2.19,17.42-5.24,17.42-14.32,0-9.53-12.08-6.82-18.24-9.22a2.19,2.19,0,0,1,0-4.18c7-2.53,19.43-7.56,16.62-17.43-2.25-7.88-12.11-9.45-18.91-10.64a1.93,1.93,0,0,1-1.84-1.77,1.75,1.75,0,0,0,1.33.67,1.18,1.18,0,0,0,1.19-.81C258.12,293.17,258.51,292.31,258.92,291.44Z"/><path class="cls-1" d="M156.38,334.47a21.33,21.33,0,0,0-3.82,2.19l4.1-3a21,21,0,0,1,3.81-2.21l-2,1.51-1.32,1-.49.37Z"/><path class="cls-1" d="M156.38,334.47a21.33,21.33,0,0,0-3.82,2.19l4.1-3a21,21,0,0,1,3.81-2.21l-2,1.51-1.32,1-.49.37Z"/><g class="cls-31"><path class="cls-1" d="M237.35,329.33l-4.09,3a2,2,0,0,1-1,.4,49.37,49.37,0,0,1-5.7.31c-7.74,0-15.79-1.39-23.32-2-6.14-.49-12.32-.89-18.47-.87q-4.64,0-9.24.37c-6.69.55-16.78,1.51-23,6.09l4.09-3c6.21-4.6,16.29-5.55,23-6.1,3.06-.26,6.14-.36,9.22-.38,6.17,0,12.34.38,18.47.88,7.54.6,15.59,2,23.33,2a49,49,0,0,0,5.68-.37,2,2,0,0,0,1-.4"/></g><path class="cls-1" d="M201,294c5.17,0,10.32.16,15.46.44s10.63-.19,15.24,2a1.66,1.66,0,0,1-.38,3,14.86,14.86,0,0,1-4.14.55c-2.37,0-4.88-.42-7.35-.6q-6.67-.5-13.33-.79c-3.45-.15-6.92-.24-10.37-.23a137,137,0,0,0-13.94.68c-8.27.88-19.34,2.05-26.13,7.47-4.32,3.45-7.26,9.76-3.09,14.7,2.47,2.92,6.53,4,10.14,4.84l.39.1c2.05.45,1.36,3.37-.53,3.37h-.38a33.9,33.9,0,0,1-4.87-1.29c-5.58-1.94-10.47-5.59-10.58-12.23-.13-8.67,7.32-14.18,14.73-16.78,1-.35,2-.69,3.08-1,.18.38.36.76.52,1.18a1.17,1.17,0,0,0,1.18.81,1.72,1.72,0,0,0,1.66-1.79,1.87,1.87,0,0,0-.12-.57l-.18-.4c9.6-2.36,19.88-3.1,29.54-3.29A31,31,0,0,1,201,294Z"/><path class="cls-1" d="M160.59,356.21l4.09-3c.21.17.42.36.63.56a.89.89,0,0,1,0,1.28l0,0-4.1,3a.89.89,0,0,0,.13-1.25l-.06-.06A5.17,5.17,0,0,0,160.59,356.21Z"/><path class="cls-1" d="M160.59,356.21l4.09-3c.21.17.42.36.63.56a.89.89,0,0,1,0,1.28l0,0-4.1,3a.89.89,0,0,0,.13-1.25l-.06-.06A5.17,5.17,0,0,0,160.59,356.21Z"/><g class="cls-32"><path class="cls-1" d="M165.24,355.05l-4.1,3a.89.89,0,0,0,.13-1.25l-.06-.06a7,7,0,0,0-3.13-1.77l4.09-3a7.33,7.33,0,0,1,3.14,1.77.91.91,0,0,1,0,1.29l0,0"/></g><path class="cls-1" d="M160.59,356.21a7.81,7.81,0,0,0-2.51-1.18l4.09-3a8.36,8.36,0,0,1,2.51,1.18Z"/><path class="cls-1" d="M160.59,356.21a7.81,7.81,0,0,0-2.51-1.18l4.09-3a8.36,8.36,0,0,1,2.51,1.18Z"/><g class="cls-33"><path class="cls-1" d="M165.24,355.05l-4.1,3a.89.89,0,0,0,.13-1.25l-.06-.06a7,7,0,0,0-3.13-1.77l4.09-3a7.33,7.33,0,0,1,3.14,1.77.91.91,0,0,1,0,1.29l0,0"/></g><path class="cls-1" d="M143.55,349.48c-2.09-6.55,1.51-12.34,6.57-16.1l4.09-3c-5.06,3.75-8.66,9.54-6.57,16.11,1,3,4.1,6.06,7.69,7.86a14.07,14.07,0,0,0,6.22,1.62,8.75,8.75,0,0,0,1.44-.12,8.06,8.06,0,0,0,1.18-.27,7,7,0,0,0,1-.44h.11L161.14,358l-.09.07a7,7,0,0,1-2.2.71,11.65,11.65,0,0,1-1.44.12,14.38,14.38,0,0,1-6.22-1.62C147.65,355.56,144.53,352.52,143.55,349.48Z"/><path class="cls-1" d="M143.55,349.48c-2.09-6.55,1.51-12.34,6.57-16.1l4.09-3c-5.06,3.75-8.66,9.54-6.57,16.11,1,3,4.1,6.06,7.69,7.86a14.07,14.07,0,0,0,6.22,1.62,8.75,8.75,0,0,0,1.44-.12,8.06,8.06,0,0,0,1.18-.27,7,7,0,0,0,1-.44h.11L161.14,358l-.09.07a7,7,0,0,1-2.2.71,11.65,11.65,0,0,1-1.44.12,14.38,14.38,0,0,1-6.22-1.62C147.65,355.56,144.53,352.52,143.55,349.48Z"/><g class="cls-34"><path class="cls-1" d="M165.24,355.05l-4.1,3-.09.07a7,7,0,0,1-2.2.71,11.65,11.65,0,0,1-1.44.12,14.38,14.38,0,0,1-6.22-1.62c-3.54-1.8-6.71-4.83-7.69-7.87-2.09-6.57,1.51-12.35,6.57-16.11l4.1-3c-5.07,3.74-8.67,9.53-6.58,16.1,1,3,4.1,6.07,7.69,7.86a13.94,13.94,0,0,0,6.22,1.62,8.75,8.75,0,0,0,1.44-.12,6.73,6.73,0,0,0,1.18-.27,6.54,6.54,0,0,0,1-.44h.1"/></g><path class="cls-1" d="M177.79,356.53c-4.84.38-11.7.64-17.72,2l3.6-2.67.49-.35c6.06-1.41,12.91-1.67,17.72-2.05S191.33,353,196,353q5.76,0,11.52.24c7.32.3,15.07,1.7,22.45,1.67,1.46,0,2.9-.06,4.33-.19a1.78,1.78,0,0,0,.94-.36l-4.09,3a1.74,1.74,0,0,1-.95.36c-1.42.13-2.86.19-4.32.2-7.42,0-15.17-1.38-22.45-1.68-3.84-.15-7.68-.25-11.52-.23C187.2,356,182.48,356.17,177.79,356.53Z"/><path class="cls-1" d="M177.79,356.53c-4.84.38-11.7.64-17.72,2l3.6-2.67.49-.35c6.06-1.41,12.91-1.67,17.72-2.05S191.33,353,196,353q5.76,0,11.52.24c7.32.3,15.07,1.7,22.45,1.67,1.46,0,2.9-.06,4.33-.19a1.78,1.78,0,0,0,.94-.36l-4.09,3a1.74,1.74,0,0,1-.95.36c-1.42.13-2.86.19-4.32.2-7.42,0-15.17-1.38-22.45-1.68-3.84-.15-7.68-.25-11.52-.23C187.2,356,182.48,356.17,177.79,356.53Z"/><g class="cls-35"><path class="cls-1" d="M235.27,354.32l-4.09,3a1.77,1.77,0,0,1-1,.36c-1.42.13-2.86.19-4.31.2-7.42,0-15.17-1.38-22.45-1.68-3.84-.15-7.68-.25-11.52-.23-4.73,0-9.46.17-14.11.53s-11.7.64-17.73,2l4.09-3c6.06-1.41,12.92-1.67,17.73-2.05S191.37,353,196,353q5.76,0,11.52.24c7.31.3,15.06,1.7,22.45,1.67,1.45,0,2.89-.06,4.32-.19a1.82,1.82,0,0,0,1-.36"/></g><path class="cls-1" d="M187.74,322.78c3.23,0,6.42.08,9.54.22,6.71.32,13.4.93,20.09,1.45,6.46.48,13.1.34,19.5,1.3,2.49.36,1.54,3.74-.5,4a49.55,49.55,0,0,1-5.71.32c-7.74,0-15.79-1.41-23.33-2-6.13-.5-12.3-.89-18.47-.88-3.08,0-6.16.12-9.22.38-8.38.69-22,2-26.78,10.26-3.15,5.54-.43,10.77,5.1,13,1.41.55,2.85.79,4.21,1.18a7.33,7.33,0,0,1,3.14,1.77.88.88,0,0,1,0,1.25.65.65,0,0,1-.16.13,6.54,6.54,0,0,1-1,.44,7.77,7.77,0,0,1-1.18.27,8.75,8.75,0,0,1-1.44.12,13.94,13.94,0,0,1-6.22-1.62c-3.54-1.79-6.71-4.83-7.69-7.86-2.55-8,3.36-14.84,10-18.25a32.93,32.93,0,0,0,4.87,1.28h.38c1.89,0,2.59-2.91.53-3.36l-.39-.1C170.87,323.54,179.4,322.79,187.74,322.78Z"/><path class="cls-1" d="M234.77,351.14a1.82,1.82,0,0,1-.45,3.54c-1.43.13-2.87.19-4.32.19-7.42,0-15.17-1.37-22.45-1.68Q201.79,353,196,353c-4.73,0-9.46.18-14.11.54s-11.7.64-17.73,2.05a7.65,7.65,0,0,0,1-.44.88.88,0,0,0,.3-1.22,1,1,0,0,0-.12-.16,7.34,7.34,0,0,0-3.15-1.78,147.12,147.12,0,0,1,33.28-3.36h3c6.33.06,12.68.36,19,.79C223.23,349.77,229.25,349.69,234.77,351.14Z"/><path class="cls-1" d="M185.11,404.84a20.07,20.07,0,0,1,1.08-19.55l4.09-3a20.1,20.1,0,0,0-1.08,19.57c4.07,8.27,12.26,11.5,20.85,11.48a22.18,22.18,0,0,0,3.25-.16c6.32-.6,14.84-1.61,20.43-5.76l-4.09,3c-5.59,4.14-14.11,5.15-20.44,5.76-1.07.09-2.16.15-3.24.15C197.35,416.35,189.18,413.07,185.11,404.84Z"/><path class="cls-1" d="M185.11,404.84a20.07,20.07,0,0,1,1.08-19.55l4.09-3a20.1,20.1,0,0,0-1.08,19.57c4.07,8.27,12.26,11.5,20.85,11.48a22.18,22.18,0,0,0,3.25-.16c6.32-.6,14.84-1.61,20.43-5.76l-4.09,3c-5.59,4.14-14.11,5.15-20.44,5.76-1.07.09-2.16.15-3.24.15C197.35,416.35,189.18,413.07,185.11,404.84Z"/><g class="cls-36"><path class="cls-1" d="M233.73,407.38l-4.09,3c-5.59,4.14-14.11,5.15-20.44,5.76-1.07.09-2.16.15-3.24.15-8.59,0-16.78-3.26-20.85-11.49a19.91,19.91,0,0,1,4.95-23.92l.09-.09,4.09-3-.09.07a19.91,19.91,0,0,0-5,23.94c4.07,8.27,12.26,11.5,20.85,11.49a20.89,20.89,0,0,0,3.25-.17c6.32-.6,14.84-1.61,20.43-5.76"/></g><path class="cls-1" d="M158.9,358.86a23.52,23.52,0,0,0-8,3.54l4.1-3a23.47,23.47,0,0,1,8-3.54A31.8,31.8,0,0,1,158.9,358.86Z"/><path class="cls-1" d="M158.9,358.86a23.52,23.52,0,0,0-8,3.54l4.1-3a23.47,23.47,0,0,1,8-3.54A31.8,31.8,0,0,1,158.9,358.86Z"/><g class="cls-37"><path class="cls-1" d="M163,355.82l-4.09,3a23.52,23.52,0,0,0-8,3.54l4.09-3a23.52,23.52,0,0,1,8-3.54"/></g><path class="cls-1" d="M167.25,380.49c1.73.76.73,3.32-.9,3.32a1.62,1.62,0,0,1-.44,0c-7.37-2.1-17.47-8-18.84-16.36-1-6.31,3.15-10.51,8.27-13a14.07,14.07,0,0,0,6.22,1.62A8.75,8.75,0,0,0,163,356a21.42,21.42,0,0,0-9,4.31C144.52,368.67,160.72,377.57,167.25,380.49Z"/><path class="cls-1" d="M167.32,383.43l-4.09,3a1.57,1.57,0,0,1-1,.33,1.33,1.33,0,0,1-.45-.07c-7.36-2.1-17.47-8-18.84-16.35-.8-4.87,1.5-8.49,4.94-11l4.09-3c-3.44,2.56-5.74,6.16-4.94,11,1.37,8.33,11.47,14.26,18.84,16.36a1.09,1.09,0,0,0,.44,0A1.57,1.57,0,0,0,167.32,383.43Z"/><path class="cls-1" d="M167.32,383.43l-4.09,3a1.57,1.57,0,0,1-1,.33,1.33,1.33,0,0,1-.45-.07c-7.36-2.1-17.47-8-18.84-16.35-.8-4.87,1.5-8.49,4.94-11l4.09-3c-3.44,2.56-5.74,6.16-4.94,11,1.37,8.33,11.47,14.26,18.84,16.36a1.09,1.09,0,0,0,.44,0A1.57,1.57,0,0,0,167.32,383.43Z"/><g class="cls-38"><path class="cls-1" d="M167.32,383.43l-4.09,3a1.57,1.57,0,0,1-1,.33,1.33,1.33,0,0,1-.45-.07c-7.36-2.1-17.47-8-18.84-16.35-.8-4.87,1.5-8.49,4.94-11l4.09-3c-3.44,2.56-5.74,6.16-4.94,11,1.37,8.33,11.47,14.26,18.84,16.36a1.09,1.09,0,0,0,.44,0,1.56,1.56,0,0,0,1-.33"/></g><path class="cls-1" d="M50.4,141.86l-4.09,3a2.24,2.24,0,0,1-1.18.41c-4.23.31-8.5.44-12.77.45-10.21,0-20.52-.62-30.6-1.1-2.3-.11-2.06-2.53-.89-3.39l4.1-3c-1.19.87-1.4,3.29.89,3.4,10.08.48,20.39,1.18,30.6,1.11,4.27,0,8.54-.14,12.77-.45A2.17,2.17,0,0,0,50.4,141.86Z"/><path class="cls-1" d="M50.4,141.86l-4.09,3a2.24,2.24,0,0,1-1.18.41c-4.23.31-8.5.44-12.77.45-10.21,0-20.52-.62-30.6-1.1-2.3-.11-2.06-2.53-.89-3.39l4.1-3c-1.19.87-1.4,3.29.89,3.4,10.08.48,20.39,1.18,30.6,1.11,4.27,0,8.54-.14,12.77-.45A2.17,2.17,0,0,0,50.4,141.86Z"/><g class="cls-39"><path class="cls-1" d="M50.4,141.86l-4.09,3a2.24,2.24,0,0,1-1.18.41c-4.23.31-8.5.44-12.77.45-10.21,0-20.52-.62-30.6-1.1-2.3-.11-2.06-2.53-.89-3.39l4.1-3c-1.19.87-1.4,3.29.89,3.4,10.08.48,20.39,1.18,30.6,1.11,4.27,0,8.54-.14,12.77-.45a2.1,2.1,0,0,0,1.18-.43"/></g><path class="cls-1" d="M5.84,137.94a.94.94,0,0,1,.41,0c3.47.08,6.93.1,10.39.09s6.62,0,9.91-.07,6.82-.08,10.23-.1c4.14,0,8.27,0,12.43.17a2.11,2.11,0,0,1,0,4.2c-4.23.3-8.5.43-12.78.44-10.21,0-20.51-.62-30.59-1.11C3.06,141.49,4,137.94,5.84,137.94Z"/><path class="cls-1" d="M58.34,81.54l-4.09,3a2.07,2.07,0,0,1-1.18.4,2.64,2.64,0,0,1-1.1-.25A139.66,139.66,0,0,0,20.1,75.1c-1.84-.32-1.71-2.44-.52-3.32l4.07-3c-1.18.89-1.34,3,.51,3.32A140,140,0,0,1,56,81.68a2.6,2.6,0,0,0,1.1.25A2.13,2.13,0,0,0,58.34,81.54Z"/><path class="cls-1" d="M58.34,81.54l-4.09,3a2.07,2.07,0,0,1-1.18.4,2.64,2.64,0,0,1-1.1-.25A139.66,139.66,0,0,0,20.1,75.1c-1.84-.32-1.71-2.44-.52-3.32l4.07-3c-1.18.89-1.34,3,.51,3.32A140,140,0,0,1,56,81.68a2.6,2.6,0,0,0,1.1.25A2.13,2.13,0,0,0,58.34,81.54Z"/><g class="cls-40"><path class="cls-1" d="M58.34,81.54l-4.09,3a2.07,2.07,0,0,1-1.18.4,2.64,2.64,0,0,1-1.1-.25A139.66,139.66,0,0,0,20.1,75.1c-1.84-.32-1.71-2.44-.52-3.32l4.07-3c-1.18.89-1.34,3,.51,3.32A140,140,0,0,1,56,81.68a2.6,2.6,0,0,0,1.1.25,2,2,0,0,0,1.18-.41"/></g><path class="cls-1" d="M24.83,68.35h.33a132.41,132.41,0,0,1,32.59,9.16c2.6.4,1.78,4.39-.65,4.39a2.46,2.46,0,0,1-1.1-.25,140.4,140.4,0,0,0-31.83-9.57C21.83,71.66,22.68,68.36,24.83,68.35Z"/><path class="cls-1" d="M400.72,68.81l-4.09,3c-3.72,2.74-9,3.54-13.3,5.27-5.13,2-12.28,4.23-17,7.75l4.09-3c4.73-3.54,11.89-5.73,17-7.76C391.68,72.38,397.05,71.56,400.72,68.81Z"/><path class="cls-1" d="M400.72,68.81l-4.09,3c-3.72,2.74-9,3.54-13.3,5.27-5.13,2-12.28,4.23-17,7.75l4.09-3c4.73-3.54,11.89-5.73,17-7.76C391.68,72.38,397.05,71.56,400.72,68.81Z"/><g class="cls-41"><path class="cls-1" d="M400.72,68.81l-4.09,3c-3.72,2.74-9,3.54-13.3,5.27-5.13,2-12.28,4.23-17,7.75l4.09-3c4.73-3.54,11.89-5.73,17-7.76,4.26-1.7,9.59-2.52,13.3-5.27"/></g><path class="cls-1" d="M368.43,83.51l-4.09,3a1.32,1.32,0,0,1-1.85-.3,1.33,1.33,0,0,1-.09-1.4A16.21,16.21,0,0,1,366.19,81l4.09-3a16.4,16.4,0,0,0-3.79,3.83,1.28,1.28,0,0,0,.46,1.76,1.31,1.31,0,0,0,.72.18A1.24,1.24,0,0,0,368.43,83.51Z"/><path class="cls-1" d="M368.43,83.51l-4.09,3a1.32,1.32,0,0,1-1.85-.3,1.33,1.33,0,0,1-.09-1.4A16.21,16.21,0,0,1,366.19,81l4.09-3a16.4,16.4,0,0,0-3.79,3.83,1.28,1.28,0,0,0,.46,1.76,1.31,1.31,0,0,0,.72.18A1.24,1.24,0,0,0,368.43,83.51Z"/><g class="cls-42"><path class="cls-1" d="M368.43,83.51l-4.09,3a1.32,1.32,0,0,1-1.85-.3,1.33,1.33,0,0,1-.09-1.4A16.21,16.21,0,0,1,366.19,81l4.09-3a16.4,16.4,0,0,0-3.79,3.83,1.28,1.28,0,0,0,.46,1.76,1.31,1.31,0,0,0,.72.18,1.21,1.21,0,0,0,.73-.24"/></g><path class="cls-1" d="M399.18,66a12.12,12.12,0,0,1,1.48.09c.94.13,1.76,1.31.88,2.09-3.73,3.29-9.53,4.1-14.12,5.91-5.91,2.36-14.29,4.84-18.91,9.31a1.24,1.24,0,0,1-.88.35,1.28,1.28,0,0,1-1.35-1.21,1.24,1.24,0,0,1,.17-.73c3.47-5,10.12-7.37,15.51-9.79C386.91,69.79,393.5,66,399.18,66Z"/><path class="cls-1" d="M417,140.62l-4.09,3a1.94,1.94,0,0,1-1.18.36h-.11c-12.63-.44-25.59-.21-38.14-2-1.56-.23-1.42-2.12-.41-2.86l4.08-3c-1,.76-1.18,2.65.42,2.86,12.55,1.76,25.51,1.54,38.14,2h.11A1.91,1.91,0,0,0,417,140.62Z"/><path class="cls-1" d="M417,140.62l-4.09,3a1.94,1.94,0,0,1-1.18.36h-.11c-12.63-.44-25.59-.21-38.14-2-1.56-.23-1.42-2.12-.41-2.86l4.08-3c-1,.76-1.18,2.65.42,2.86,12.55,1.76,25.51,1.54,38.14,2h.11A1.91,1.91,0,0,0,417,140.62Z"/><g class="cls-43"><path class="cls-1" d="M417,140.62l-4.09,3a1.94,1.94,0,0,1-1.18.36h-.11c-12.63-.44-25.59-.21-38.14-2-1.56-.23-1.42-2.12-.41-2.86l4.08-3c-1,.76-1.18,2.65.42,2.86,12.55,1.76,25.51,1.54,38.14,2h.11a1.91,1.91,0,0,0,1.18-.35"/></g><path class="cls-1" d="M386.6,135.54c9.71,0,19.52.79,29.15,1.18,2.68.1,2.75,4.23.13,4.23h-.11c-12.63-.44-25.59-.21-38.14-2-1.9-.28-1.27-3,.42-3.17C380.88,135.63,383.74,135.55,386.6,135.54Z"/></g><path class="cls-1" d="M143.42,197.27c.31-2.91,1.36-5,3.13-6.31a15,15,0,0,1,6.9-2.54,67.56,67.56,0,0,1,9.2-.59,96.91,96.91,0,0,0,4.25-11.27Q169,169.9,171,162.23t3.84-15.64q1.89-8,3.54-15.28t3.12-13.16c1-3.89,1.87-7,2.66-9.26q-6.13.12-10.44.35c-2.88.16-5.55.4-8,.71s-5.17.75-8.08,1.3q.82-4.48,6.49-6.78t17.58-2.31q5.9,0,12,.48t11.15,1c3.38.35,6,.69,7.79,1a11.91,11.91,0,0,1-6,3.48,27,27,0,0,1-5.49.65h-6.9c-2.17,0-4.15,0-6,.12q-.48,2.48-1.42,7.73t-2.24,12q-1.29,6.78-2.71,14t-2.78,13.8q-1.35,6.56-2.53,11.27a75.54,75.54,0,0,1-4.25,12.75,17.33,17.33,0,0,1-5.66,7.43q6.14.36,13.09,1.24a120.78,120.78,0,0,0,12.51,1,14.72,14.72,0,0,1-7.14,4.25,29.64,29.64,0,0,1-6.19.83q-4.73,0-9.27.06t-9,.17q-4.43.12-8.74.53T143.42,197.27Z"/><path class="cls-1" d="M224.13,197.15c-3.54,0-6-.78-7.31-2.36a8.94,8.94,0,0,1-2-6,28.91,28.91,0,0,1,1.42-8.15q1.41-4.71,3-9.08,2-5.78,4.83-13.57t6.08-16.29q3.24-8.49,6.61-16.75t6.55-15q-8.15.12-13.63.36c-3.66.16-6.94.37-9.85.65s-6.1.72-9.56,1.35a7.78,7.78,0,0,1,4.13-6.25,28.1,28.1,0,0,1,10.15-3.19,99.66,99.66,0,0,1,14.51-.94q8.15,0,14.57.65t12.1,1.24c3.77.39,7.55.63,11.32.7a18.27,18.27,0,0,1-9.2,4.61,61.22,61.22,0,0,1-11,.94c-.87,0-1.77,0-2.72-.06s-1.88-.06-2.83-.06h-2.83q-3.78,9.45-8.67,23.84t-9.86,32.45q-1.65,6.25-3,11.21t-2.13,9.08a44.13,44.13,0,0,0-.77,8v1.3A6.43,6.43,0,0,0,224.13,197.15Z"/></g></g></svg>