<svg xmlns="http://www.w3.org/2000/svg" viewBox="0 0 65.38 62.75"><defs><style>.cls-1{fill:#ce3434;}.cls-2{fill:#a8efef;}.cls-3{fill:#878787;}</style></defs><title>PC</title><g id="Calque_2" data-name="Calque 2"><g id="Calque_1-2" data-name="Calque 1"><path d="M56.51,35.48a1.24,1.24,0,0,1,1.33.83,1.55,1.55,0,0,1-2.76-.75Z" transform="translate(-0.25 -0.25)"/><path d="M58.06,35.46a1.28,1.28,0,0,1-.22.85,1.24,1.24,0,0,0-1.33-.83l-1.43.08a.3.3,0,0,1,0-.1C54.53,27,53.25,18.51,52.67,10h1.57A1.39,1.39,0,0,0,55.6,9C56.16,17.87,57.51,26.62,58.06,35.46Z" transform="translate(-0.25 -0.25)"/><path d="M52.59,8.87c-.12-1.93,2.88-1.92,3,0,0,.05,0,.11,0,.16a1.39,1.39,0,0,1-1.36,1H52.67C52.64,9.62,52.61,9.25,52.59,8.87Z" transform="translate(-0.25 -0.25)"/><path d="M43.82,57.67c1.88-.22,1.89,2.65.12,3h0a5.88,5.88,0,0,1-5-2.41Z" transform="translate(-0.25 -0.25)"/><path d="M44.34,57.55a1.5,1.5,0,0,1,.79,2.89,6.47,6.47,0,0,1-1.19.21c1.77-.33,1.76-3.2-.12-3v0A2.51,2.51,0,0,0,44.34,57.55Z" transform="translate(-0.25 -0.25)"/><path class="cls-1" d="M27.51,15.05a1.17,1.17,0,0,1,1.43,0,1.23,1.23,0,0,1,.44.62A7.7,7.7,0,0,0,29.12,17c-.19,1.54,2.11,2,2.8.76a3.46,3.46,0,0,0,.46-1.6c.47-1,1.5-2,2.54-1.38,1.33.87,1,2.95.45,4.15-.88,2-2.31,3.64-3.21,5.61a21.49,21.49,0,0,0-1.29,3.57,18.09,18.09,0,0,1-4.54-8.57C26,18,26,15.93,27.51,15.05Z" transform="translate(-0.25 -0.25)"/><path class="cls-2" d="M29,11.9c-2.73-.53-5.15,1.81-5.72,4.34-.68,3,.68,6.14,1.95,8.81a16.51,16.51,0,0,0,4.95,6.32h0a1.52,1.52,0,0,0,1.5,1.49,1.53,1.53,0,0,0,1.5-1.5,20.18,20.18,0,0,1,3.07-8.12c1.42-2.24,2.91-4.57,2.49-7.35-.36-2.33-2.17-4.47-4.68-4.36A4.55,4.55,0,0,0,31,12.92,4.08,4.08,0,0,0,29,11.9Zm-8.35-1.77,10.93-.05L52.67,10c.58,8.51,1.86,17,2.39,25.46a.3.3,0,0,0,0,.1c-13.9.8-27.83.18-41.75.38l0-.14c-2.06-8.22-2.57-16.71-3.16-25.13A66.12,66.12,0,0,1,20.67,10.13Z" transform="translate(-0.25 -0.25)"/><path d="M31,12.92a4.13,4.13,0,0,1,1.37,3.19,2.77,2.77,0,0,0-.26.84l-2.79-.76a.56.56,0,0,0,.05-.47A6.81,6.81,0,0,1,31,12.92Z" transform="translate(-0.25 -0.25)"/><path d="M32.08,29.07c1.57,1.1.07,3.7-1.51,2.59l-.37-.28h0a24.25,24.25,0,0,1,.67-3.31A9.67,9.67,0,0,0,32.08,29.07Z" transform="translate(-0.25 -0.25)"/><path d="M30.57,31.66c1.58,1.11,3.08-1.49,1.51-2.59a9.67,9.67,0,0,1-1.21-1,21.49,21.49,0,0,1,1.29-3.57c.9-2,2.33-3.64,3.21-5.61.54-1.2.88-3.28-.45-4.15-1-.67-2.07.36-2.54,1.38A4.13,4.13,0,0,0,31,12.92a4.55,4.55,0,0,1,3.07-1.38c2.51-.11,4.32,2,4.68,4.36.42,2.78-1.07,5.11-2.49,7.35a20.18,20.18,0,0,0-3.07,8.12,1.53,1.53,0,0,1-1.5,1.5,1.52,1.52,0,0,1-1.5-1.49Z" transform="translate(-0.25 -0.25)"/><path d="M32.38,16.11a3.46,3.46,0,0,1-.46,1.6c-.69,1.2-3,.78-2.8-.76a7.7,7.7,0,0,1,.26-1.23.56.56,0,0,1-.05.47l2.79.76A2.77,2.77,0,0,1,32.38,16.11Z" transform="translate(-0.25 -0.25)"/><path d="M26.33,19.49a18.09,18.09,0,0,0,4.54,8.57,24.25,24.25,0,0,0-.67,3.31,16.51,16.51,0,0,1-4.95-6.32c-1.27-2.67-2.63-5.81-1.95-8.81.57-2.53,3-4.87,5.72-4.34a4.08,4.08,0,0,1,2,1,6.81,6.81,0,0,0-1.63,2.8,1.23,1.23,0,0,0-.44-.62,1.17,1.17,0,0,0-1.43,0C26,15.93,26,18,26.33,19.49Z" transform="translate(-0.25 -0.25)"/><path d="M26.44,45.07a1.52,1.52,0,0,1-1.36,2.06l-1.07,0c0-.31,0-.62,0-.93A1.5,1.5,0,0,1,26.44,45.07Z" transform="translate(-0.25 -0.25)"/><path class="cls-3" d="M20,7.13a82.8,82.8,0,0,0-8.48.34l-.3-2.26a213,213,0,0,1,27.87-2c4.82,0,9.65.13,14.46.43,1.2.08,2.41.14,3.61.27a2,2,0,0,1,2,1.38A34.4,34.4,0,0,1,61,11.86a85.85,85.85,0,0,1,1.43,13.77c.15,3.77.83,8.29-.69,11.87a7,7,0,0,1-4.43,3.85l-.75-2.87a1.57,1.57,0,0,0,1.33-2.17,1.28,1.28,0,0,0,.22-.85C57.51,26.62,56.16,17.87,55.6,9a1.47,1.47,0,0,0-1.36-2l-23.14.1Z" transform="translate(-0.25 -0.25)"/><path d="M18.84,62.05c-.91-1-.11-3,1.43-2.46a7.35,7.35,0,0,0,2.15.4,20.48,20.48,0,0,1-1.67,1.95,1.37,1.37,0,0,1-1.85.17A.12.12,0,0,1,18.84,62.05Z" transform="translate(-0.25 -0.25)"/><path d="M18.9,62.11a1.37,1.37,0,0,0,1.85-.17A20.48,20.48,0,0,0,22.42,60a19,19,0,0,0,3.1-.18l6.1-.71,7.32-.86a5.88,5.88,0,0,0,5,2.41l-.09,0L31.15,62.15c-2,.24-4,.48-6,.7a12.31,12.31,0,0,1-5.63-.37A1.49,1.49,0,0,1,18.9,62.11Z" transform="translate(-0.25 -0.25)"/><path d="M18.62,59.81A19.15,19.15,0,0,0,24,47.15l1.07,0a1.52,1.52,0,0,0,1.36-2.06A1.36,1.36,0,0,1,27,46.22,22.14,22.14,0,0,1,22.42,60a7.35,7.35,0,0,1-2.15-.4C18.73,59,17.93,61,18.84,62.05A1.47,1.47,0,0,1,18.62,59.81Z" transform="translate(-0.25 -0.25)"/><path d="M13.33,35.94c.29,1.77-2.46,2.48-2.92.65,0,0,0,0,0,0a1.36,1.36,0,0,1,1.16-.6Z" transform="translate(-0.25 -0.25)"/><path d="M19,3.91a1.49,1.49,0,0,0,.46-2.65,213.39,213.39,0,0,1,22.33-1q7.36.06,14.71.63c1.9.15,3.69.41,4.83,2.11s1.62,4.08,2.11,6.05A75.09,75.09,0,0,1,65.22,22.4c.25,4.2.69,8.62.12,12.8-.52,3.85-2.5,7.09-6.16,8.64-3.86,1.64-8,1.13-12.1,1.11-2,0-4.44,0-6.16,1.15-1.33.91-1.37,2.72-1.36,4.19,0,2.43.84,7.8,4.26,7.36v0l-4.88.57a10,10,0,0,1-2-4.32c-.71-3.54-.88-8.39,2.62-10.5,3.8-2.29,8.83-1.28,13-1.35a15.56,15.56,0,0,0,4.69-.72,7,7,0,0,0,4.43-3.85c1.52-3.58.84-8.1.69-11.87A85.85,85.85,0,0,0,61,11.86a34.4,34.4,0,0,0-1.82-6.53,2,2,0,0,0-2-1.38c-1.2-.13-2.41-.19-3.61-.27-4.81-.3-9.64-.45-14.46-.43a213,213,0,0,0-27.87,2l-1.32.18a1.44,1.44,0,0,1-.69,0c1.12-.22,2.29-.32,3.39-.45A57.31,57.31,0,0,0,19,3.91Z" transform="translate(-0.25 -0.25)"/><path d="M56.51,38.48c-15,1-30,.2-44.95.48a1.49,1.49,0,0,1-1.16-2.4s0,0,0,0c.46,1.83,3.21,1.12,2.92-.65,13.92-.2,27.85.42,41.75-.38a1.55,1.55,0,0,0,2.76.75A1.57,1.57,0,0,1,56.51,38.48Z" transform="translate(-0.25 -0.25)"/><path d="M9.08,2.5C12.52,2,16,1.59,19.42,1.26A1.49,1.49,0,0,1,19,3.91a57.31,57.31,0,0,1-6.39,1c-1.1.13-2.27.23-3.39.45C7.81,5,7.42,2.74,9.08,2.5Z" transform="translate(-0.25 -0.25)"/><path d="M10.06,9.46c0,.4.06.81.08,1.21-.22,0-.43.06-.65.1C7.78,11.09,7,8.74,8.23,8A1.57,1.57,0,0,1,10.06,9.46Z" transform="translate(-0.25 -0.25)"/><path d="M11.49,7.47A82.8,82.8,0,0,1,20,7.13l11.13,0L54.24,7A1.47,1.47,0,0,1,55.6,9s0-.11,0-.16c-.12-1.92-3.12-1.93-3,0,0,.38,0,.75.08,1.13l-21.07.08-10.93.05a66.12,66.12,0,0,0-10.53.54c0-.4-.05-.81-.08-1.21A1.57,1.57,0,0,0,8.23,8a1.26,1.26,0,0,1,.46-.17C9.62,7.7,10.56,7.57,11.49,7.47Z" transform="translate(-0.25 -0.25)"/><path d="M10.14,10.67c.59,8.42,1.1,16.91,3.16,25.13l0,.14-1.77,0a1.36,1.36,0,0,0-1.16.6c-2.22-8.84-2.7-18-3.34-27.1A1.26,1.26,0,0,1,8.23,8c-1.27.7-.45,3.05,1.26,2.73C9.71,10.73,9.92,10.69,10.14,10.67Z" transform="translate(-0.25 -0.25)"/><path class="cls-3" d="M10.4,36.56A1.49,1.49,0,0,0,11.56,39c15-.28,30,.48,44.95-.48l.75,2.87a15.56,15.56,0,0,1-4.69.72c-4.19.07-9.22-.94-13,1.35-3.5,2.11-3.33,7-2.62,10.5a10,10,0,0,0,2,4.32l-7.32.86-6.1.71a19,19,0,0,1-3.1.18A22.14,22.14,0,0,0,27,46.22a1.36,1.36,0,0,0-.58-1.15,1.31,1.31,0,0,0-1.36-.94c-2.54.07-5.09.12-7.63.15s-5,.17-7.5,0c-1.15-.08-1.11-.7-1.3-1.71l-.72-3.92-1.41-7.6q-1.39-7.59-2.8-15.19c-.4-2.13-.82-4.25.06-6.32A6.77,6.77,0,0,1,7.17,5.93a11.1,11.1,0,0,1,2-.59,1.44,1.44,0,0,0,.69,0l1.32-.18.3,2.26c-.93.1-1.87.23-2.8.4A1.26,1.26,0,0,0,8.23,8,1.26,1.26,0,0,0,7.06,9.46C7.7,18.53,8.18,27.72,10.4,36.56Z" transform="translate(-0.25 -0.25)"/><path d="M24,47.15c-2.92.08-5.85.13-8.77.14-1.64,0-3.28,0-4.92,0a4.72,4.72,0,0,1-3.43-1.11,6,6,0,0,1-1.22-3.31L5,39C4.4,36,3.86,33.07,3.31,30.13c-.51-2.78-1-5.55-1.54-8.33S.57,16.19.29,13.36C-.13,9.11,2.27,4.57,6.37,3c3.73-1.39,7.94-1.1,11.79-2a1.44,1.44,0,0,1,1.26.25C16,1.59,12.52,2,9.08,2.5c-1.66.24-1.27,2.45.1,2.84a11.1,11.1,0,0,0-2,.59A6.77,6.77,0,0,0,3.78,9.54c-.88,2.07-.46,4.19-.06,6.32q1.4,7.59,2.8,15.19l1.41,7.6.72,3.92c.19,1,.15,1.63,1.3,1.71,2.48.17,5,0,7.5,0s5.09-.08,7.63-.15a1.31,1.31,0,0,1,1.36.94A1.5,1.5,0,0,0,24,46.22C24,46.53,24,46.84,24,47.15Z" transform="translate(-0.25 -0.25)"/></g></g></svg>